<?xml version="1.0" encoding="UTF-8" standalone="no"?>
<svg
   xmlns:dc="http://purl.org/dc/elements/1.1/"
   xmlns:cc="http://creativecommons.org/ns#"
   xmlns:rdf="http://www.w3.org/1999/02/22-rdf-syntax-ns#"
   xmlns:svg="http://www.w3.org/2000/svg"
   xmlns="http://www.w3.org/2000/svg"
   version="1.1"
   id="svg2"
   xml:space="preserve"
width="720.92601"
height="362.27599"
   viewBox="0 0 480.61734 241.51733"><metadata
     id="metadata8"><rdf:RDF><cc:Work
         rdf:about=""><dc:format>image/svg+xml</dc:format><dc:type
           rdf:resource="http://purl.org/dc/dcmitype/StillImage" /></cc:Work></rdf:RDF></metadata><defs
     id="defs6" /><g
     id="g10"
     transform="matrix(1.3333333,0,0,-1.3333333,0,241.51733)"><g
       id="g12"
       transform="translate(105.175,154.35)"><g
         id="g14"><g
           id="g16" /><g
           id="g18"><g
             id="g20"><g
               id="g22" /><g
               id="g24"><path
                 d="m -24.90692,-20.99718 c 0,-1.22992 11.15103,-2.22694 24.90692,-2.22694 13.75589,0 24.90692,0.99702 24.90692,2.22694 v 45.35996 c 0,1.22992 -11.15103,2.22692 -24.90692,2.22692 -13.75589,0 -24.90692,-0.997 -24.90692,-2.22692 z m 0,45.35996 c 0,-1.22992 11.15103,-2.22695 24.90692,-2.22695 13.75589,0 24.90692,0.99703 24.90692,2.22695"
                 style="fill:#808080;fill-opacity:1;fill-rule:nonzero;stroke:#000000;stroke-width:0.3985;stroke-linecap:butt;stroke-linejoin:miter;stroke-miterlimit:10;stroke-dasharray:none;stroke-opacity:1"
                 id="path26" /></g><g
               id="g28"
               transform="translate(-6.583,-2.33)"><g
                 id="g30"><g
                   id="g32"
                   transform="translate(-98.592,-152.02)"><text
                     transform="matrix(1,0,0,-1,98.592,152.02)"
                     style="font-variant:normal;font-weight:normal;font-size:6.97385px;font-family:'TeX Gyre Termes';-inkscape-font-specification:TeXGyreTermesX-Regular;writing-mode:lr-tb;fill:#000000;fill-opacity:1;fill-rule:nonzero;stroke:none"
                     id="text36"><tspan
                       x="0 5.0351195 8.1315088 10.070239"
                       y="0"
                       id="tspan34">Data</tspan></text><g
                     id="g38"
                     transform="translate(98.592,152.02)" /></g></g><g
                 id="g40"
                 transform="translate(6.583,2.33)" /></g></g><g
             id="g42"><g
               id="g44"><path
                 d="m 54.79523,-5.4365 h 49.81384 V 5.4365 H 54.79523 Z"
                 style="fill:#6ba4c4;fill-opacity:1;fill-rule:nonzero;stroke:none"
                 id="path46" /></g><g
               id="g48"
               transform="translate(62.064,-1.603)"><g
                 id="g50"><g
                   id="g52"
                   transform="translate(-167.239,-152.747)"><text
                     transform="matrix(1,0,0,-1,167.239,152.747)"
                     style="font-variant:normal;font-weight:normal;font-size:6.97385px;font-family:'TeX Gyre Termes';-inkscape-font-specification:TeXGyreTermesX-Regular;writing-mode:lr-tb;fill:#000000;fill-opacity:1;fill-rule:nonzero;stroke:none"
                     id="text56"><tspan
                       x="0 4.4841857 7.580575 10.676965 14.352183 18.229645 21.326033 26.751688 30.238613 32.177345"
                       y="0"
                       id="tspan54">RealSample</tspan></text><g
                     id="g58"
                     transform="translate(167.239,152.747)" /></g></g><g
                 id="g60"
                 transform="translate(-62.064,1.603)" /></g></g><g
             id="g62"><g
               id="g64"><path
                 d="m 20.92181,-42.34177 h -41.84362 c -2.20093,0 -3.98511,-1.78416 -3.98511,-3.9851 v -66.75055 c 0,-2.20093 1.78418,-3.98511 3.98511,-3.98511 h 41.84362 c 2.20093,0 3.98511,1.78418 3.98511,3.98511 v 66.75055 c 0,2.20094 -1.78418,3.9851 -3.98511,3.9851 z"
                 style="fill:#e8dc98;fill-opacity:1;fill-rule:nonzero;stroke:none"
                 id="path66" /></g><g
               id="g68"
               transform="translate(-13.941,-82.015)"><g
                 id="g70"><g
                   id="g72"
                   transform="translate(-91.234,-72.335)"><text
                     transform="matrix(1,0,0,-1,91.234,72.335)"
                     style="font-variant:normal;font-weight:normal;font-size:6.97385px;font-family:'TeX Gyre Termes';-inkscape-font-specification:TeXGyreTermesX-Regular;writing-mode:lr-tb;fill:#000000;fill-opacity:1;fill-rule:nonzero;stroke:none"
                     id="text76"><tspan
                       x="0 5.0351195 8.1315088 11.618434 14.714824 17.037115 20.133505 22.072235 25.55916"
                       y="0"
                       id="tspan74">Generator</tspan></text><g
                     id="g78"
                     transform="translate(91.234,72.335)" /></g></g><g
                 id="g80"
                 transform="translate(13.941,82.015)" /></g></g><g
             id="g82"><g
               id="g84"><path
                 d="m 54.79523,-85.13864 h 49.81384 v 10.873 H 54.79523 Z"
                 style="fill:#6ba4c4;fill-opacity:1;fill-rule:nonzero;stroke:none"
                 id="path86" /></g><g
               id="g88"
               transform="translate(61.782,-81.304)"><g
                 id="g90"><g
                   id="g92"
                   transform="translate(-166.957,-73.046)"><text
                     transform="matrix(1,0,0,-1,166.957,73.046)"
                     style="font-variant:normal;font-weight:normal;font-size:6.97385px;font-family:'TeX Gyre Termes';-inkscape-font-specification:TeXGyreTermesX-Regular;writing-mode:lr-tb;fill:#000000;fill-opacity:1;fill-rule:nonzero;stroke:none"
                     id="text96"><tspan
                       x="0 3.6333759 6.7297654 10.077213 14.917066 18.794525 21.890915 27.31657 30.803495 32.742226"
                       y="0"
                       id="tspan94">FakeSample</tspan></text><g
                     id="g98"
                     transform="translate(166.957,73.046)" /></g></g><g
                 id="g100"
                 transform="translate(-61.782,81.304)" /></g></g><g
             id="g102"><g
               id="g104"><path
                 d="m 180.32611,-2.49069 h -41.84363 c -2.20094,0 -3.9851,-1.78417 -3.9851,-3.98511 v -66.75055 c 0,-2.20093 1.78416,-3.98511 3.9851,-3.98511 h 41.84363 c 2.20093,0 3.98511,1.78418 3.98511,3.98511 V -6.4758 c 0,2.20094 -1.78418,3.98511 -3.98511,3.98511 z"
                 style="fill:#d97e65;fill-opacity:1;fill-rule:nonzero;stroke:none"
                 id="path106" /></g><g
               id="g108"
               transform="translate(139.963,-42.18)"><g
                 id="g110"><g
                   id="g112"
                   transform="translate(-245.138,-112.17)"><text
                     transform="matrix(1,0,0,-1,245.138,112.17)"
                     style="font-variant:normal;font-weight:normal;font-size:6.97385px;font-family:'TeX Gyre Termes';-inkscape-font-specification:TeXGyreTermesX-Regular;writing-mode:lr-tb;fill:#000000;fill-opacity:1;fill-rule:nonzero;stroke:none"
                     id="text116"><tspan
                       x="0 5.0351195 6.9738498 9.6866779 12.783067 15.244836 17.183567 22.609222 24.547953 28.034878 31.131266 33.069996 36.556923"
                       y="0"
                       id="tspan114">Discriminator</tspan></text><g
                     id="g118"
                     transform="translate(245.138,112.17)" /></g></g><g
                 id="g120"
                 transform="translate(-139.963,42.18)" /></g></g><g
             id="g122"><g
               id="g124"><path
                 d="m -105.17653,-85.13864 h 50.94876 v 10.873 h -50.94876 z"
                 style="fill:#6ba4c4;fill-opacity:1;fill-rule:nonzero;stroke:none"
                 id="path126" /></g><g
               id="g128"
               transform="translate(-102.851,-81.304)"><g
                 id="g130"><g
                   id="g132"
                   transform="translate(-2.324,-73.046)"><text
                     transform="matrix(1,0,0,-1,2.324,73.046)"
                     style="font-variant:normal;font-weight:normal;font-size:6.97385px;font-family:'TeX Gyre Termes';-inkscape-font-specification:TeXGyreTermesX-Regular;writing-mode:lr-tb;fill:#000000;fill-opacity:1;fill-rule:nonzero;stroke:none"
                     id="text136"><tspan
                       x="0 4.6515579 7.7479472 11.234873 14.721797 18.208723 25.37784 29.255301 32.351688 37.777344 41.264271 43.202999"
                       y="0"
                       id="tspan134">RandomSample</tspan></text><g
                     id="g138"
                     transform="translate(2.324,73.046)" /></g></g><g
                 id="g140"
                 transform="translate(102.851,81.304)" /></g></g><g
             id="g142"><g
               id="g144"
               transform="translate(225.243,-42.164)"><g
                 id="g146"><g
                   id="g148"
                   transform="translate(-330.418,-112.186)"><text
                     transform="matrix(1,0,0,-1,330.418,112.186)"
                     style="font-variant:normal;font-weight:normal;font-size:6.97385px;font-family:'TeX Gyre Termes';-inkscape-font-specification:TeXGyreTermesX-Regular;writing-mode:lr-tb;fill:#000000;fill-opacity:1;fill-rule:nonzero;stroke:none"
                     id="text152"><tspan
                       x="0 4.4772115 7.5736012 10.669991 12.608721 14.547451 18.180826 21.277216 24.624664"
                       y="0"
                       id="tspan150">Real/Fake</tspan></text><g
                     id="g154"
                     transform="translate(330.418,112.186)" /></g></g><g
                 id="g156"
                 transform="translate(-225.243,42.164)" /></g></g><g
             id="g158"><g
               id="g160"><path
                 d="m -54.0285,-79.70215 h 26.92978"
                 style="fill:none;stroke:#808080;stroke-width:0.99628;stroke-linecap:butt;stroke-linejoin:miter;stroke-miterlimit:10;stroke-dasharray:none;stroke-opacity:1"
                 id="path162" /><g
                 id="g164"><g
                   id="g166"
                   transform="translate(-26.60059,-79.70215)"><g
                     id="g168"><path
                       d="M -2.78957,3.47087 C -2.27992,1.38832 -1.14423,0.40492 0,0 -1.14423,-0.40492 -2.27992,-1.38832 -2.78957,-3.47087"
                       style="fill:none;stroke:#808080;stroke-width:0.99628;stroke-linecap:round;stroke-linejoin:round;stroke-miterlimit:10;stroke-dasharray:none;stroke-opacity:1"
                       id="path170" /></g></g></g></g></g><g
             id="g172"><g
               id="g174"><path
                 d="M 25.10617,-79.70215 H 52.60341"
                 style="fill:none;stroke:#808080;stroke-width:0.99628;stroke-linecap:butt;stroke-linejoin:miter;stroke-miterlimit:10;stroke-dasharray:none;stroke-opacity:1"
                 id="path176" /><g
                 id="g178"><g
                   id="g180"
                   transform="translate(53.10155,-79.70215)"><g
                     id="g182"><path
                       d="M -2.78957,3.47087 C -2.27992,1.38832 -1.14423,0.40492 0,0 -1.14423,-0.40492 -2.27992,-1.38832 -2.78957,-3.47087"
                       style="fill:none;stroke:#808080;stroke-width:0.99628;stroke-linecap:round;stroke-linejoin:round;stroke-miterlimit:10;stroke-dasharray:none;stroke-opacity:1"
                       id="path184" /></g></g></g></g></g><g
             id="g186"><g
               id="g188"><path
                 d="M 25.11105,4.7e-4 52.60341,0"
                 style="fill:none;stroke:#808080;stroke-width:0.99628;stroke-linecap:butt;stroke-linejoin:miter;stroke-miterlimit:10;stroke-dasharray:none;stroke-opacity:1"
                 id="path190" /><g
                 id="g192"><g
                   id="g194"
                   transform="translate(53.10155)"><g
                     id="g196"><path
                       d="M -2.78957,3.47087 C -2.27992,1.38832 -1.14423,0.40492 0,0 -1.14423,-0.40492 -2.27992,-1.38832 -2.78957,-3.47087"
                       style="fill:none;stroke:#808080;stroke-width:0.99628;stroke-linecap:round;stroke-linejoin:round;stroke-miterlimit:10;stroke-dasharray:none;stroke-opacity:1"
                       id="path198" /></g></g></g></g></g><g
             id="g200"><g
               id="g202"><path
                 d="m 90.96968,-74.06639 41.54634,20.77423"
                 style="fill:none;stroke:#808080;stroke-width:0.99628;stroke-linecap:butt;stroke-linejoin:miter;stroke-miterlimit:10;stroke-dasharray:none;stroke-opacity:1"
                 id="path204" /><g
                 id="g206"><g
                   id="g208"
                   transform="matrix(0.89438,0.4472,-0.4472,0.89438,132.96155,-53.06938)"><g
                     id="g210"><path
                       d="M -2.78957,3.47087 C -2.27992,1.38832 -1.14423,0.40492 0,0 -1.14423,-0.40492 -2.27992,-1.38832 -2.78957,-3.47087"
                       style="fill:none;stroke:#808080;stroke-width:0.99628;stroke-linecap:round;stroke-linejoin:round;stroke-miterlimit:10;stroke-dasharray:none;stroke-opacity:1"
                       id="path212" /></g></g></g></g></g><g
             id="g214"><g
               id="g216"><path
                 d="m 90.96968,-5.63574 41.54634,-20.77423"
                 style="fill:none;stroke:#808080;stroke-width:0.99628;stroke-linecap:butt;stroke-linejoin:miter;stroke-miterlimit:10;stroke-dasharray:none;stroke-opacity:1"
                 id="path218" /><g
                 id="g220"><g
                   id="g222"
                   transform="matrix(0.89438,-0.4472,0.4472,0.89438,132.96155,-26.63275)"><g
                     id="g224"><path
                       d="M -2.78957,3.47087 C -2.27992,1.38832 -1.14423,0.40492 0,0 -1.14423,-0.40492 -2.27992,-1.38832 -2.78957,-3.47087"
                       style="fill:none;stroke:#808080;stroke-width:0.99628;stroke-linecap:round;stroke-linejoin:round;stroke-miterlimit:10;stroke-dasharray:none;stroke-opacity:1"
                       id="path226" /></g></g></g></g></g><g
             id="g228"><g
               id="g230"><path
                 d="m 184.51047,-39.85107 h 36.21908"
                 style="fill:none;stroke:#808080;stroke-width:0.99628;stroke-linecap:butt;stroke-linejoin:miter;stroke-miterlimit:10;stroke-dasharray:none;stroke-opacity:1"
                 id="path232" /><g
                 id="g234"><g
                   id="g236"
                   transform="translate(221.22769,-39.85107)"><g
                     id="g238"><path
                       d="M -2.78957,3.47087 C -2.27992,1.38832 -1.14423,0.40492 0,0 -1.14423,-0.40492 -2.27992,-1.38832 -2.78957,-3.47087"
                       style="fill:none;stroke:#808080;stroke-width:0.99628;stroke-linecap:round;stroke-linejoin:round;stroke-miterlimit:10;stroke-dasharray:none;stroke-opacity:1"
                       id="path240" /></g></g></g></g></g><g
             id="g242" /><g
             id="g244" /><g
             id="g246"><path
               d="m 239.10645,-44.77548 v -69.73938 0 H 159.4043 v 35.1116"
               style="fill:none;stroke:#808080;stroke-width:0.99628;stroke-linecap:butt;stroke-linejoin:miter;stroke-miterlimit:10;stroke-dasharray:2.98883, 2.98883;stroke-dashoffset:0;stroke-opacity:1"
               id="path248" /><g
               id="g250"><g
                 id="g252"
                 transform="rotate(90,119.15471,40.24959)"><g
                   id="g254"><path
                     d="M -2.78957,3.47087 C -2.27992,1.38832 -1.14423,0.40492 0,0 -1.14423,-0.40492 -2.27992,-1.38832 -2.78957,-3.47087"
                     style="fill:none;stroke:#808080;stroke-width:0.99628;stroke-linecap:round;stroke-linejoin:round;stroke-miterlimit:10;stroke-dasharray:none;stroke-opacity:1"
                     id="path256" /></g></g></g><g
               id="g258"><g
                 id="g260"
                 transform="translate(132.504,-122.051)"><g
                   id="g262"><g
                     id="g264"
                     transform="translate(-237.679,-32.299)"><text
                       transform="matrix(1,0,0,-1,237.679,32.299)"
                       style="font-variant:normal;font-weight:normal;font-size:6.97385px;font-family:'TeX Gyre Termes';-inkscape-font-specification:TeXGyreTermesX-Regular;writing-mode:lr-tb;fill:#000000;fill-opacity:1;fill-rule:nonzero;stroke:none"
                       id="text268"><tspan
                         x="0 5.0351195 6.9738498 9.6866779 12.783067 15.244836 17.183567 22.609222 24.547953 28.034878 31.131266 33.069996 36.556923 40.622677 44.883698 48.370625 51.08345"
                         y="0"
                         id="tspan266">DiscriminatorLoss</tspan></text><g
                       id="g270"
                       transform="translate(237.679,32.299)" /></g></g><g
                   id="g272"
                   transform="translate(-132.504,122.051)" /></g></g></g><g
             id="g274"><path
               d="m 239.10645,-44.77548 v -99.62769 0 H 0 v 25.14884"
               style="fill:none;stroke:#808080;stroke-width:0.99628;stroke-linecap:butt;stroke-linejoin:miter;stroke-miterlimit:10;stroke-dasharray:2.98883, 2.98883;stroke-dashoffset:0;stroke-opacity:1"
               id="path276" /><g
               id="g278"><g
                 id="g280"
                 transform="rotate(90,59.3781,-59.3781)"><g
                   id="g282"><path
                     d="M -2.78957,3.47087 C -2.27992,1.38832 -1.14423,0.40492 0,0 -1.14423,-0.40492 -2.27992,-1.38832 -2.78957,-3.47087"
                     style="fill:none;stroke:#808080;stroke-width:0.99628;stroke-linecap:round;stroke-linejoin:round;stroke-miterlimit:10;stroke-dasharray:none;stroke-opacity:1"
                     id="path284" /></g></g></g><g
               id="g286"><g
                 id="g288"
                 transform="translate(-21.399,-151.938)"><g
                   id="g290"><g
                     id="g292"
                     transform="translate(-83.776,-2.412)"><text
                       transform="matrix(1,0,0,-1,83.776,2.412)"
                       style="font-variant:normal;font-weight:normal;font-size:6.97385px;font-family:'TeX Gyre Termes';-inkscape-font-specification:TeXGyreTermesX-Regular;writing-mode:lr-tb;fill:#000000;fill-opacity:1;fill-rule:nonzero;stroke:none"
                       id="text296"><tspan
                         x="0 5.0351195 8.1315088 11.618434 14.714824 17.037115 20.133505 22.072235 25.55916 29.624914 33.885937 37.372864 40.08569"
                         y="0"
                         id="tspan294">GeneratorLoss</tspan></text><g
                       id="g298"
                       transform="translate(83.776,2.412)" /></g></g><g
                   id="g300"
                   transform="translate(21.399,151.938)" /></g></g></g></g></g></g></g></svg>
