<?xml version="1.0" encoding="UTF-8" standalone="no"?>
<svg
   xmlns:dc="http://purl.org/dc/elements/1.1/"
   xmlns:cc="http://creativecommons.org/ns#"
   xmlns:rdf="http://www.w3.org/1999/02/22-rdf-syntax-ns#"
   xmlns:svg="http://www.w3.org/2000/svg"
   xmlns="http://www.w3.org/2000/svg"
   version="1.1"
   id="svg2"
   xml:space="preserve"
width="511.72998"
height="398.34402"
   viewBox="0 0 341.15332 265.56268"><metadata
     id="metadata8"><rdf:RDF><cc:Work
         rdf:about=""><dc:format>image/svg+xml</dc:format><dc:type
           rdf:resource="http://purl.org/dc/dcmitype/StillImage" /></cc:Work></rdf:RDF></metadata><defs
     id="defs6" /><g
     id="g10"
     transform="matrix(1.3333333,0,0,-1.3333333,0,265.56267)"><g
       id="g12"
       transform="translate(127.933,99.586)"><g
         id="g14"><g
           id="g16" /><g
           id="g18"><g
             id="g20"><g
               id="g22"><path
                 d="m 70.86705,56.69363 h -141.7341 c -7.82785,0 -14.1734,-6.34555 -14.1734,-14.1734 v -85.04046 c 0,-7.82785 6.34555,-14.1734 14.1734,-14.1734 h 141.7341 c 7.82785,0 14.1734,6.34555 14.1734,14.1734 v 85.04046 c 0,7.82785 -6.34555,14.1734 -14.1734,14.1734 z"
                 style="fill:#c7d7cf;fill-opacity:1;fill-rule:nonzero;stroke:#000000;stroke-width:1.19553;stroke-linecap:butt;stroke-linejoin:miter;stroke-miterlimit:10;stroke-dasharray:none;stroke-opacity:1"
                 id="path24" /></g><g
               id="g26"><g
                 id="g28" /></g></g><g
             id="g30"><g
               id="g32"><path
                 d="m -62.36296,-25.5121 h 11.3387 v 8.50401 h -11.3387 z"
                 style="fill:#e8dc98;fill-opacity:1;fill-rule:nonzero;stroke:#000000;stroke-width:0.3985;stroke-linecap:butt;stroke-linejoin:miter;stroke-miterlimit:10;stroke-dasharray:none;stroke-opacity:1"
                 id="path34" /></g><g
               id="g36"
               transform="translate(-59.127,-22.761)"><g
                 id="g38"><g
                   id="g40"
                   transform="translate(-68.806,-76.825)"><text
                     transform="matrix(1,0,0,-1,68.806,76.825)"
                     style="font-variant:normal;font-weight:normal;font-size:6.97385px;font-family:CMMI7;-inkscape-font-specification:CMMI7;writing-mode:lr-tb;fill:#000000;fill-opacity:1;fill-rule:nonzero;stroke:none"
                     id="text44"><tspan
                       x="0"
                       y="0"
                       id="tspan42">σ</tspan></text><g
                     id="g46"
                     transform="translate(68.806,76.825)" /></g></g><g
                 id="g48"
                 transform="translate(59.127,22.761)" /></g></g><g
             id="g50"><g
               id="g52"><path
                 d="m -48.18954,-25.5121 h 11.3387 v 8.50401 h -11.3387 z"
                 style="fill:#e8dc98;fill-opacity:1;fill-rule:nonzero;stroke:#000000;stroke-width:0.3985;stroke-linecap:butt;stroke-linejoin:miter;stroke-miterlimit:10;stroke-dasharray:none;stroke-opacity:1"
                 id="path54" /></g><g
               id="g56"
               transform="translate(-44.953,-22.761)"><g
                 id="g58"><g
                   id="g60"
                   transform="translate(-82.98,-76.825)"><text
                     transform="matrix(1,0,0,-1,82.98,76.825)"
                     style="font-variant:normal;font-weight:normal;font-size:6.97385px;font-family:CMMI7;-inkscape-font-specification:CMMI7;writing-mode:lr-tb;fill:#000000;fill-opacity:1;fill-rule:nonzero;stroke:none"
                     id="text64"><tspan
                       x="0"
                       y="0"
                       id="tspan62">σ</tspan></text><g
                     id="g66"
                     transform="translate(82.98,76.825)" /></g></g><g
                 id="g68"
                 transform="translate(44.953,22.761)" /></g></g><g
             id="g70"><g
               id="g72"><path
                 d="M -28.34679,-25.5121 H 0 v 8.50401 h -28.34679 z"
                 style="fill:#e8dc98;fill-opacity:1;fill-rule:nonzero;stroke:#000000;stroke-width:0.3985;stroke-linecap:butt;stroke-linejoin:miter;stroke-miterlimit:10;stroke-dasharray:none;stroke-opacity:1"
                 id="path74" /></g><g
               id="g76"
               transform="translate(-22.116,-23.681)"><g
                 id="g78"><g
                   id="g80"
                   transform="translate(-105.817,-75.905)"><text
                     transform="matrix(1,0,0,-1,105.817,75.905)"
                     style="font-variant:normal;font-weight:normal;font-size:6.97385px;font-family:CMR7;-inkscape-font-specification:CMR7;writing-mode:lr-tb;fill:#000000;fill-opacity:1;fill-rule:nonzero;stroke:none"
                     id="text84"><tspan
                       x="0 3.1131268 7.0840368 11.484536"
                       y="0"
                       id="tspan82">tanh</tspan></text><g
                     id="g86"
                     transform="translate(105.817,75.905)" /></g></g><g
                 id="g88"
                 transform="translate(22.116,23.681)" /></g></g><g
             id="g90"><g
               id="g92"><path
                 d="m 8.50404,-25.5121 h 11.3387 v 8.50401 H 8.50404 Z"
                 style="fill:#e8dc98;fill-opacity:1;fill-rule:nonzero;stroke:#000000;stroke-width:0.3985;stroke-linecap:butt;stroke-linejoin:miter;stroke-miterlimit:10;stroke-dasharray:none;stroke-opacity:1"
                 id="path94" /></g><g
               id="g96"
               transform="translate(11.739,-22.761)"><g
                 id="g98"><g
                   id="g100"
                   transform="translate(-139.672,-76.825)"><text
                     transform="matrix(1,0,0,-1,139.672,76.825)"
                     style="font-variant:normal;font-weight:normal;font-size:6.97385px;font-family:CMMI7;-inkscape-font-specification:CMMI7;writing-mode:lr-tb;fill:#000000;fill-opacity:1;fill-rule:nonzero;stroke:none"
                     id="text104"><tspan
                       x="0"
                       y="0"
                       id="tspan102">σ</tspan></text><g
                     id="g106"
                     transform="translate(139.672,76.825)" /></g></g><g
                 id="g108"
                 transform="translate(-11.739,22.761)" /></g></g><g
             id="g110"><g
               id="g112"><path
                 d="m -49.60692,42.5202 c 0,3.91391 -3.17278,7.08669 -7.0867,7.08669 -3.91391,0 -7.08668,-3.17278 -7.08668,-7.08669 0,-3.91392 3.17277,-7.0867 7.08668,-7.0867 3.91392,0 7.0867,3.17278 7.0867,7.0867 z"
                 style="fill:#6ba4c4;fill-opacity:1;fill-rule:nonzero;stroke:#000000;stroke-width:0.3985;stroke-linecap:butt;stroke-linejoin:miter;stroke-miterlimit:10;stroke-dasharray:none;stroke-opacity:1"
                 id="path114" /></g><g
               id="g116"
               transform="translate(-59.807,40.776)"><g
                 id="g118"><g
                   id="g120"
                   transform="translate(-68.126,-140.362)"><text
                     transform="matrix(1,0,0,-1,68.126,140.362)"
                     style="font-variant:normal;font-weight:normal;font-size:6.97385px;font-family:CMSY7;-inkscape-font-specification:CMSY7;writing-mode:lr-tb;fill:#000000;fill-opacity:1;fill-rule:nonzero;stroke:none"
                     id="text124"><tspan
                       x="0"
                       y="0"
                       id="tspan122">×</tspan></text><g
                     id="g126"
                     transform="translate(68.126,140.362)" /></g></g><g
                 id="g128"
                 transform="translate(59.807,-40.776)" /></g></g><g
             id="g130"><g
               id="g132"><path
                 d="m -7.0867,42.5202 c 0,3.91391 -3.17278,7.08669 -7.08669,7.08669 -3.91392,0 -7.0867,-3.17278 -7.0867,-7.08669 0,-3.91392 3.17278,-7.0867 7.0867,-7.0867 3.91391,0 7.08669,3.17278 7.08669,7.0867 z"
                 style="fill:#6ba4c4;fill-opacity:1;fill-rule:nonzero;stroke:#000000;stroke-width:0.3985;stroke-linecap:butt;stroke-linejoin:miter;stroke-miterlimit:10;stroke-dasharray:none;stroke-opacity:1"
                 id="path134" /></g><g
               id="g136"
               transform="translate(-17.232,40.776)"><g
                 id="g138"><g
                   id="g140"
                   transform="translate(-110.701,-140.362)"><text
                     transform="matrix(1,0,0,-1,110.701,140.362)"
                     style="font-variant:normal;font-weight:normal;font-size:6.97385px;font-family:CMR7;-inkscape-font-specification:CMR7;writing-mode:lr-tb;fill:#000000;fill-opacity:1;fill-rule:nonzero;stroke:none"
                     id="text144"><tspan
                       x="0"
                       y="0"
                       id="tspan142">+</tspan></text><g
                     id="g146"
                     transform="translate(110.701,140.362)" /></g></g><g
                 id="g148"
                 transform="translate(17.232,-40.776)" /></g></g><g
             id="g150"><g
               id="g152"><path
                 d="m -7.0867,0 c 0,3.91391 -3.17278,7.08669 -7.08669,7.08669 -3.91392,0 -7.0867,-3.17278 -7.0867,-7.08669 0,-3.91391 3.17278,-7.08669 7.0867,-7.08669 3.91391,0 7.08669,3.17278 7.08669,7.08669 z"
                 style="fill:#6ba4c4;fill-opacity:1;fill-rule:nonzero;stroke:#000000;stroke-width:0.3985;stroke-linecap:butt;stroke-linejoin:miter;stroke-miterlimit:10;stroke-dasharray:none;stroke-opacity:1"
                 id="path154" /></g><g
               id="g156"
               transform="translate(-17.287,-1.743)"><g
                 id="g158"><g
                   id="g160"
                   transform="translate(-110.646,-97.843)"><text
                     transform="matrix(1,0,0,-1,110.646,97.843)"
                     style="font-variant:normal;font-weight:normal;font-size:6.97385px;font-family:CMSY7;-inkscape-font-specification:CMSY7;writing-mode:lr-tb;fill:#000000;fill-opacity:1;fill-rule:nonzero;stroke:none"
                     id="text164"><tspan
                       x="0"
                       y="0"
                       id="tspan162">×</tspan></text><g
                     id="g166"
                     transform="translate(110.646,97.843)" /></g></g><g
                 id="g168"
                 transform="translate(17.287,1.743)" /></g></g><g
             id="g170"><g
               id="g172"><path
                 d="m 49.60689,0 c 0,3.91391 -3.17278,7.08669 -7.08669,7.08669 -3.91392,0 -7.0867,-3.17278 -7.0867,-7.08669 0,-3.91391 3.17278,-7.08669 7.0867,-7.08669 3.91391,0 7.08669,3.17278 7.08669,7.08669 z"
                 style="fill:#6ba4c4;fill-opacity:1;fill-rule:nonzero;stroke:#000000;stroke-width:0.3985;stroke-linecap:butt;stroke-linejoin:miter;stroke-miterlimit:10;stroke-dasharray:none;stroke-opacity:1"
                 id="path174" /></g><g
               id="g176"
               transform="translate(39.406,-1.743)"><g
                 id="g178"><g
                   id="g180"
                   transform="translate(-167.339,-97.843)"><text
                     transform="matrix(1,0,0,-1,167.339,97.843)"
                     style="font-variant:normal;font-weight:normal;font-size:6.97385px;font-family:CMSY7;-inkscape-font-specification:CMSY7;writing-mode:lr-tb;fill:#000000;fill-opacity:1;fill-rule:nonzero;stroke:none"
                     id="text184"><tspan
                       x="0"
                       y="0"
                       id="tspan182">×</tspan></text><g
                     id="g186"
                     transform="translate(167.339,97.843)" /></g></g><g
                 id="g188"
                 transform="translate(-39.406,1.743)" /></g></g><g
             id="g190"><g
               id="g192"><path
                 d="m 55.16165,21.2601 c 0,2.66947 -5.65968,4.83345 -12.64145,4.83345 -6.98176,0 -12.64145,-2.16398 -12.64145,-4.83345 0,-2.66948 5.65969,-4.83346 12.64145,-4.83346 6.98177,0 12.64145,2.16398 12.64145,4.83346 z"
                 style="fill:#6ba4c4;fill-opacity:1;fill-rule:nonzero;stroke:#000000;stroke-width:0.3985;stroke-linecap:butt;stroke-linejoin:miter;stroke-miterlimit:10;stroke-dasharray:none;stroke-opacity:1"
                 id="path194" /></g><g
               id="g196"
               transform="translate(34.577,18.839)"><g
                 id="g198"><g
                   id="g200"
                   transform="translate(-162.51,-118.425)"><text
                     transform="matrix(1,0,0,-1,162.51,118.425)"
                     style="font-variant:normal;font-weight:normal;font-size:6.97385px;font-family:CMR7;-inkscape-font-specification:CMR7;writing-mode:lr-tb;fill:#000000;fill-opacity:1;fill-rule:nonzero;stroke:none"
                     id="text204"><tspan
                       x="0 3.1131268 7.0840368 11.484536"
                       y="0"
                       id="tspan202">tanh</tspan></text><g
                     id="g206"
                     transform="translate(162.51,118.425)" /></g></g><g
                 id="g208"
                 transform="translate(-34.577,-18.839)" /></g></g><g
             id="g210"><g
               id="g212"><path
                 d="m -99.21384,42.5202 c 0,7.82785 -6.34555,14.1734 -14.1734,14.1734 -7.82783,0 -14.17338,-6.34555 -14.17338,-14.1734 0,-7.82785 6.34555,-14.1734 14.17338,-14.1734 7.82785,0 14.1734,6.34555 14.1734,14.1734 z"
                 style="fill:none;stroke:#000000;stroke-width:0.74721;stroke-linecap:butt;stroke-linejoin:miter;stroke-miterlimit:10;stroke-dasharray:none;stroke-opacity:1"
                 id="path214" /></g><g
               id="g216"
               transform="translate(-119.864,41.773)"><g
                 id="g218"><g
                   id="g220"
                   transform="translate(-8.069,-141.359)"><text
                     transform="matrix(1,0,0,-1,8.069,141.359)"
                     style="font-variant:normal;font-weight:bold;font-size:6.97385px;font-family:'TeX Gyre Termes';-inkscape-font-specification:TeXGyreTermesX-Bold;writing-mode:lr-tb;fill:#000000;fill-opacity:1;fill-rule:nonzero;stroke:none"
                     id="text224"><tspan
                       x="0"
                       y="0"
                       id="tspan222">c</tspan></text><text
                     transform="matrix(1,0,0,-1,11.165,140.363)"
                     style="font-style:italic;font-variant:normal;font-size:4.98132px;font-family:'TeX Gyre Termes';-inkscape-font-specification:TeXGyreTermesX-Italic;writing-mode:lr-tb;fill:#000000;fill-opacity:1;fill-rule:nonzero;stroke:none"
                     id="text228"><tspan
                       x="0"
                       y="0"
                       id="tspan226">t</tspan></text><text
                     transform="matrix(1,0,0,-1,12.64,140.363)"
                     style="font-variant:normal;font-weight:normal;font-size:4.98132px;font-family:CMSY5;-inkscape-font-specification:CMSY5;writing-mode:lr-tb;fill:#000000;fill-opacity:1;fill-rule:nonzero;stroke:none"
                     id="text232"><tspan
                       x="0"
                       y="0"
                       id="tspan230">−</tspan></text><text
                     transform="matrix(1,0,0,-1,18.036,140.363)"
                     style="font-variant:normal;font-weight:normal;font-size:4.98132px;font-family:'TeX Gyre Termes';-inkscape-font-specification:TeXGyreTermesX-Regular;writing-mode:lr-tb;fill:#000000;fill-opacity:1;fill-rule:nonzero;stroke:none"
                     id="text236"><tspan
                       x="0"
                       y="0"
                       id="tspan234">1</tspan></text><g
                     id="g238"
                     transform="translate(8.069,141.359)" /></g></g><g
                 id="g240"
                 transform="translate(119.864,-41.773)" /></g></g><g
             id="g242"><g
               id="g244"
               transform="translate(-118.79,59.59)"><g
                 id="g246"><g
                   id="g248"
                   transform="translate(-9.143,-159.176)"><text
                     transform="matrix(1,0,0,-1,9.143,159.176)"
                     style="font-variant:normal;font-weight:normal;font-size:6.27642px;font-family:'TeX Gyre Heros';-inkscape-font-specification:TeXGyreHeros-Regular;writing-mode:lr-tb;fill:#000000;fill-opacity:1;fill-rule:nonzero;stroke:none"
                     id="text252"><tspan
                       x="0 4.5315752 8.021265 9.4146299"
                       y="0"
                       id="tspan250">Cell</tspan></text><g
                     id="g254"
                     transform="translate(9.143,159.176)" /></g></g><g
                 id="g256"
                 transform="translate(118.79,-59.59)" /></g></g><g
             id="g258"><g
               id="g260"><path
                 d="m -99.21384,-42.5202 c 0,7.82785 -6.34555,14.1734 -14.1734,14.1734 -7.82783,0 -14.17338,-6.34555 -14.17338,-14.1734 0,-7.82785 6.34555,-14.1734 14.17338,-14.1734 7.82785,0 14.1734,6.34555 14.1734,14.1734 z"
                 style="fill:none;stroke:#000000;stroke-width:0.74721;stroke-linecap:butt;stroke-linejoin:miter;stroke-miterlimit:10;stroke-dasharray:none;stroke-opacity:1"
                 id="path262" /></g><g
               id="g264"
               transform="translate(-120.255,-44.007)"><g
                 id="g266"><g
                   id="g268"
                   transform="translate(-7.678,-55.579)"><text
                     transform="matrix(1,0,0,-1,7.678,55.579)"
                     style="font-variant:normal;font-weight:bold;font-size:6.97385px;font-family:'TeX Gyre Termes';-inkscape-font-specification:TeXGyreTermesX-Bold;writing-mode:lr-tb;fill:#000000;fill-opacity:1;fill-rule:nonzero;stroke:none"
                     id="text272"><tspan
                       x="0"
                       y="0"
                       id="tspan270">h</tspan></text><text
                     transform="matrix(1,0,0,-1,11.556,54.583)"
                     style="font-style:italic;font-variant:normal;font-size:4.98132px;font-family:'TeX Gyre Termes';-inkscape-font-specification:TeXGyreTermesX-Italic;writing-mode:lr-tb;fill:#000000;fill-opacity:1;fill-rule:nonzero;stroke:none"
                     id="text276"><tspan
                       x="0"
                       y="0"
                       id="tspan274">t</tspan></text><text
                     transform="matrix(1,0,0,-1,13.03,54.583)"
                     style="font-variant:normal;font-weight:normal;font-size:4.98132px;font-family:CMSY5;-inkscape-font-specification:CMSY5;writing-mode:lr-tb;fill:#000000;fill-opacity:1;fill-rule:nonzero;stroke:none"
                     id="text280"><tspan
                       x="0"
                       y="0"
                       id="tspan278">−</tspan></text><text
                     transform="matrix(1,0,0,-1,18.427,54.583)"
                     style="font-variant:normal;font-weight:normal;font-size:4.98132px;font-family:'TeX Gyre Termes';-inkscape-font-specification:TeXGyreTermesX-Regular;writing-mode:lr-tb;fill:#000000;fill-opacity:1;fill-rule:nonzero;stroke:none"
                     id="text284"><tspan
                       x="0"
                       y="0"
                       id="tspan282">1</tspan></text><g
                     id="g286"
                     transform="translate(7.678,55.579)" /></g></g><g
                 id="g288"
                 transform="translate(120.255,44.007)" /></g></g><g
             id="g290"><g
               id="g292"
               transform="translate(-123.328,-25.449)"><g
                 id="g294"><g
                   id="g296"
                   transform="translate(-4.605,-74.137)"><text
                     transform="matrix(1,0,0,-1,4.605,74.137)"
                     style="font-variant:normal;font-weight:normal;font-size:6.27642px;font-family:'TeX Gyre Heros';-inkscape-font-specification:TeXGyreHeros-Regular;writing-mode:lr-tb;fill:#000000;fill-opacity:1;fill-rule:nonzero;stroke:none"
                     id="text300"><tspan
                       x="0 4.5315752 5.9249406 9.4146299 12.90432 16.394009"
                       y="0"
                       id="tspan298">Hidden</tspan></text><g
                     id="g302"
                     transform="translate(4.605,74.137)" /></g></g><g
                 id="g304"
                 transform="translate(123.328,25.449)" /></g></g><g
             id="g306"><g
               id="g308"><path
                 d="m -56.69362,-85.04042 c 0,7.82785 -6.34553,14.1734 -14.17338,14.1734 -7.82785,0 -14.1734,-6.34555 -14.1734,-14.1734 0,-7.82785 6.34555,-14.1734 14.1734,-14.1734 7.82785,0 14.17338,6.34555 14.17338,14.1734 z"
                 style="fill:none;stroke:#000000;stroke-width:0.74721;stroke-linecap:butt;stroke-linejoin:miter;stroke-miterlimit:10;stroke-dasharray:none;stroke-opacity:1"
                 id="path310" /></g><g
               id="g312"
               transform="translate(-73.596,-86.177)"><g
                 id="g314"><g
                   id="g316"
                   transform="translate(-54.337,-13.409)"><text
                     transform="matrix(1,0,0,-1,54.337,13.409)"
                     style="font-variant:normal;font-weight:bold;font-size:6.97385px;font-family:'TeX Gyre Termes';-inkscape-font-specification:TeXGyreTermesX-Bold;writing-mode:lr-tb;fill:#000000;fill-opacity:1;fill-rule:nonzero;stroke:none"
                     id="text320"><tspan
                       x="0"
                       y="0"
                       id="tspan318">x</tspan></text><text
                     transform="matrix(1,0,0,-1,57.824,12.413)"
                     style="font-style:italic;font-variant:normal;font-size:4.98132px;font-family:'TeX Gyre Termes';-inkscape-font-specification:TeXGyreTermesX-Italic;writing-mode:lr-tb;fill:#000000;fill-opacity:1;fill-rule:nonzero;stroke:none"
                     id="text324"><tspan
                       x="0"
                       y="0"
                       id="tspan322">t</tspan></text><g
                     id="g326"
                     transform="translate(54.337,13.409)" /></g></g><g
                 id="g328"
                 transform="translate(73.596,86.177)" /></g></g><g
             id="g330"><g
               id="g332"
               transform="translate(-101.927,-86.677)"><g
                 id="g334"><g
                   id="g336"
                   transform="translate(-26.006,-12.909)"><text
                     transform="matrix(1,0,0,-1,26.006,12.909)"
                     style="font-variant:normal;font-weight:normal;font-size:6.27642px;font-family:'TeX Gyre Heros';-inkscape-font-specification:TeXGyreHeros-Regular;writing-mode:lr-tb;fill:#000000;fill-opacity:1;fill-rule:nonzero;stroke:none"
                     id="text340"><tspan
                       x="0 1.7448448 5.2659163 8.7556057 12.245296"
                       y="0"
                       id="tspan338">Input</tspan></text><g
                     id="g342"
                     transform="translate(26.006,12.909)" /></g></g><g
                 id="g344"
                 transform="translate(101.927,86.677)" /></g></g><g
             id="g346"><g
               id="g348"><path
                 d="m 127.56062,42.5202 c 0,7.82785 -6.34555,14.1734 -14.17338,14.1734 -7.82785,0 -14.1734,-6.34555 -14.1734,-14.1734 0,-7.82785 6.34555,-14.1734 14.1734,-14.1734 7.82783,0 14.17338,6.34555 14.17338,14.1734 z"
                 style="fill:none;stroke:#000000;stroke-width:0.74721;stroke-linecap:butt;stroke-linejoin:miter;stroke-miterlimit:10;stroke-dasharray:none;stroke-opacity:1"
                 id="path350" /></g><g
               id="g352"
               transform="translate(110.851,41.382)"><g
                 id="g354"><g
                   id="g356"
                   transform="translate(-238.784,-140.968)"><text
                     transform="matrix(1,0,0,-1,238.784,140.968)"
                     style="font-variant:normal;font-weight:bold;font-size:6.97385px;font-family:'TeX Gyre Termes';-inkscape-font-specification:TeXGyreTermesX-Bold;writing-mode:lr-tb;fill:#000000;fill-opacity:1;fill-rule:nonzero;stroke:none"
                     id="text360"><tspan
                       x="0"
                       y="0"
                       id="tspan358">c</tspan></text><text
                     transform="matrix(1,0,0,-1,241.88,139.972)"
                     style="font-style:italic;font-variant:normal;font-size:4.98132px;font-family:'TeX Gyre Termes';-inkscape-font-specification:TeXGyreTermesX-Italic;writing-mode:lr-tb;fill:#000000;fill-opacity:1;fill-rule:nonzero;stroke:none"
                     id="text364"><tspan
                       x="0"
                       y="0"
                       id="tspan362">t</tspan></text><g
                     id="g366"
                     transform="translate(238.784,140.968)" /></g></g><g
                 id="g368"
                 transform="translate(-110.851,-41.382)" /></g></g><g
             id="g370"><g
               id="g372"
               transform="translate(107.981,59.59)"><g
                 id="g374"><g
                   id="g376"
                   transform="translate(-235.914,-159.176)"><text
                     transform="matrix(1,0,0,-1,235.914,159.176)"
                     style="font-variant:normal;font-weight:normal;font-size:6.27642px;font-family:'TeX Gyre Heros';-inkscape-font-specification:TeXGyreHeros-Regular;writing-mode:lr-tb;fill:#000000;fill-opacity:1;fill-rule:nonzero;stroke:none"
                     id="text380"><tspan
                       x="0 4.5315752 8.021265 9.4146299"
                       y="0"
                       id="tspan378">Cell</tspan></text><g
                     id="g382"
                     transform="translate(235.914,159.176)" /></g></g><g
                 id="g384"
                 transform="translate(-107.981,-59.59)" /></g></g><g
             id="g386"><g
               id="g388"><path
                 d="m 127.56062,-42.5202 c 0,7.82785 -6.34555,14.1734 -14.17338,14.1734 -7.82785,0 -14.1734,-6.34555 -14.1734,-14.1734 0,-7.82785 6.34555,-14.1734 14.1734,-14.1734 7.82783,0 14.17338,6.34555 14.17338,14.1734 z"
                 style="fill:none;stroke:#000000;stroke-width:0.74721;stroke-linecap:butt;stroke-linejoin:miter;stroke-miterlimit:10;stroke-dasharray:none;stroke-opacity:1"
                 id="path390" /></g><g
               id="g392"
               transform="translate(110.46,-44.398)"><g
                 id="g394"><g
                   id="g396"
                   transform="translate(-238.393,-55.188)"><text
                     transform="matrix(1,0,0,-1,238.393,55.188)"
                     style="font-variant:normal;font-weight:bold;font-size:6.97385px;font-family:'TeX Gyre Termes';-inkscape-font-specification:TeXGyreTermesX-Bold;writing-mode:lr-tb;fill:#000000;fill-opacity:1;fill-rule:nonzero;stroke:none"
                     id="text400"><tspan
                       x="0"
                       y="0"
                       id="tspan398">h</tspan></text><text
                     transform="matrix(1,0,0,-1,242.271,54.191)"
                     style="font-style:italic;font-variant:normal;font-size:4.98132px;font-family:'TeX Gyre Termes';-inkscape-font-specification:TeXGyreTermesX-Italic;writing-mode:lr-tb;fill:#000000;fill-opacity:1;fill-rule:nonzero;stroke:none"
                     id="text404"><tspan
                       x="0"
                       y="0"
                       id="tspan402">t</tspan></text><g
                     id="g406"
                     transform="translate(238.393,55.188)" /></g></g><g
                 id="g408"
                 transform="translate(-110.46,44.398)" /></g></g><g
             id="g410"><g
               id="g412"
               transform="translate(103.444,-25.449)"><g
                 id="g414"><g
                   id="g416"
                   transform="translate(-231.377,-74.137)"><text
                     transform="matrix(1,0,0,-1,231.377,74.137)"
                     style="font-variant:normal;font-weight:normal;font-size:6.27642px;font-family:'TeX Gyre Heros';-inkscape-font-specification:TeXGyreHeros-Regular;writing-mode:lr-tb;fill:#000000;fill-opacity:1;fill-rule:nonzero;stroke:none"
                     id="text420"><tspan
                       x="0 4.5315752 5.9249406 9.4146299 12.90432 16.394009"
                       y="0"
                       id="tspan418">Hidden</tspan></text><g
                     id="g422"
                     transform="translate(231.377,74.137)" /></g></g><g
                 id="g424"
                 transform="translate(-103.444,25.449)" /></g></g><g
             id="g426"><g
               id="g428"><path
                 d="m 85.0404,85.04042 c 0,7.82785 -6.34555,14.1734 -14.1734,14.1734 -7.82785,0 -14.17338,-6.34555 -14.17338,-14.1734 0,-7.82785 6.34553,-14.1734 14.17338,-14.1734 7.82785,0 14.1734,6.34555 14.1734,14.1734 z"
                 style="fill:none;stroke:#000000;stroke-width:0.74721;stroke-linecap:butt;stroke-linejoin:miter;stroke-miterlimit:10;stroke-dasharray:none;stroke-opacity:1"
                 id="path430" /></g><g
               id="g432"
               transform="translate(67.941,83.161)"><g
                 id="g434"><g
                   id="g436"
                   transform="translate(-195.874,-182.747)"><text
                     transform="matrix(1,0,0,-1,195.874,182.747)"
                     style="font-variant:normal;font-weight:bold;font-size:6.97385px;font-family:'TeX Gyre Termes';-inkscape-font-specification:TeXGyreTermesX-Bold;writing-mode:lr-tb;fill:#000000;fill-opacity:1;fill-rule:nonzero;stroke:none"
                     id="text440"><tspan
                       x="0"
                       y="0"
                       id="tspan438">h</tspan></text><text
                     transform="matrix(1,0,0,-1,199.751,181.75)"
                     style="font-style:italic;font-variant:normal;font-size:4.98132px;font-family:'TeX Gyre Termes';-inkscape-font-specification:TeXGyreTermesX-Italic;writing-mode:lr-tb;fill:#000000;fill-opacity:1;fill-rule:nonzero;stroke:none"
                     id="text444"><tspan
                       x="0"
                       y="0"
                       id="tspan442">t</tspan></text><g
                     id="g446"
                     transform="translate(195.874,182.747)" /></g></g><g
                 id="g448"
                 transform="translate(-67.941,-83.161)" /></g></g><g
             id="g450"><g
               id="g452"
               transform="translate(33.912,82.717)"><g
                 id="g454"><g
                   id="g456"
                   transform="translate(-161.845,-182.303)"><text
                     transform="matrix(1,0,0,-1,161.845,182.303)"
                     style="font-variant:normal;font-weight:normal;font-size:6.27642px;font-family:'TeX Gyre Heros';-inkscape-font-specification:TeXGyreHeros-Regular;writing-mode:lr-tb;fill:#000000;fill-opacity:1;fill-rule:nonzero;stroke:none"
                     id="text460"><tspan
                       x="0 4.5315752 5.9249406 9.4146299 12.90432 16.394009"
                       y="0"
                       id="tspan458">Hidden</tspan></text><g
                     id="g462"
                     transform="translate(161.845,182.303)" /></g></g><g
                 id="g464"
                 transform="translate(-33.912,-82.717)" /></g></g><g
             id="g466"><path
               d="m -98.84023,42.5202 h 34.86068 m 14.57188,0 h 27.94833 m 14.57189,0 H 98.84023"
               style="fill:none;stroke:#000000;stroke-width:0.79701;stroke-linecap:butt;stroke-linejoin:miter;stroke-miterlimit:10;stroke-dasharray:none;stroke-opacity:1"
               id="path468" /></g><g
             id="g470"><path
               d="M -98.84023,-42.5202 H 0 c 7.82784,0 14.17339,6.34555 14.17339,14.1734 v 2.63545"
               style="fill:none;stroke:#000000;stroke-width:0.79701;stroke-linecap:butt;stroke-linejoin:miter;stroke-miterlimit:10;stroke-dasharray:none;stroke-opacity:1"
               id="path472" /></g><g
             id="g474"><path
               d="m -70.867,-42.5202 h 7.0867 c 3.9139,0 7.08668,3.17277 7.08668,7.0867 v 9.72215"
               style="fill:none;stroke:#000000;stroke-width:0.79701;stroke-linecap:butt;stroke-linejoin:miter;stroke-miterlimit:10;stroke-dasharray:none;stroke-opacity:1"
               id="path476" /></g><g
             id="g478"><path
               d="m -56.6936,-42.5202 h 7.08671 c 3.91391,0 7.08669,3.17277 7.08669,7.0867 v 9.72215"
               style="fill:none;stroke:#000000;stroke-width:0.79701;stroke-linecap:butt;stroke-linejoin:miter;stroke-miterlimit:10;stroke-dasharray:none;stroke-opacity:1"
               id="path480" /></g><g
             id="g482"><path
               d="m -28.34679,-42.5202 h 7.0867 c 3.91393,0 7.0867,3.17277 7.0867,7.0867 v 9.72215"
               style="fill:none;stroke:#000000;stroke-width:0.79701;stroke-linecap:butt;stroke-linejoin:miter;stroke-miterlimit:10;stroke-dasharray:none;stroke-opacity:1"
               id="path484" /></g><g
             id="g486"><path
               d="m -70.867,-70.49342 v 20.88653 c 0,3.91391 3.17277,7.08669 7.08668,7.08669 h 42.52023 c 3.91393,0 7.0867,3.17277 7.0867,7.0867 v 9.72215"
               style="fill:none;stroke:#000000;stroke-width:0.79701;stroke-linecap:butt;stroke-linejoin:miter;stroke-miterlimit:10;stroke-dasharray:none;stroke-opacity:1"
               id="path488" /></g><g
             id="g490"><path
               d="M -56.69362,-16.80884 V 29.05733"
               style="fill:none;stroke:#000000;stroke-width:0.79701;stroke-linecap:butt;stroke-linejoin:miter;stroke-miterlimit:10;stroke-dasharray:none;stroke-opacity:1"
               id="path492" /><g
               id="g494"
               transform="rotate(90,-42.875475,-13.818145)"><g
                 id="g496"><path
                   d="M 4.53381,0 C 3.97704,0.13808 1.52963,0.92049 0,1.77196 V -1.77196 C 1.52963,-0.92049 3.97704,-0.13808 4.53381,0 Z"
                   style="fill:#000000;fill-opacity:1;fill-rule:nonzero;stroke:#000000;stroke-width:0.79701;stroke-linecap:butt;stroke-linejoin:miter;stroke-miterlimit:10;stroke-dasharray:none;stroke-opacity:1"
                   id="path498" /></g></g></g><g
             id="g500"><path
               d="m -42.5202,-16.80884 v 2.63545 C -42.5202,-6.34554 -36.17465,0 -28.3468,0 h 0.71054"
               style="fill:none;stroke:#000000;stroke-width:0.79701;stroke-linecap:butt;stroke-linejoin:miter;stroke-miterlimit:10;stroke-dasharray:none;stroke-opacity:1"
               id="path502" /><g
               id="g504"
               transform="translate(-27.63626)"><g
                 id="g506"><path
                   d="M 4.53381,0 C 3.97704,0.13808 1.52963,0.92049 0,1.77196 V -1.77196 C 1.52963,-0.92049 3.97704,-0.13808 4.53381,0 Z"
                   style="fill:#000000;fill-opacity:1;fill-rule:nonzero;stroke:#000000;stroke-width:0.79701;stroke-linecap:butt;stroke-linejoin:miter;stroke-miterlimit:10;stroke-dasharray:none;stroke-opacity:1"
                   id="path508" /></g></g></g><g
             id="g510"><path
               d="m -14.17339,-16.80884 v 3.34598"
               style="fill:none;stroke:#000000;stroke-width:0.79701;stroke-linecap:butt;stroke-linejoin:miter;stroke-miterlimit:10;stroke-dasharray:none;stroke-opacity:1"
               id="path512" /><g
               id="g514"
               transform="rotate(90,-0.355265,-13.818125)"><g
                 id="g516"><path
                   d="M 4.53381,0 C 3.97704,0.13808 1.52963,0.92049 0,1.77196 V -1.77196 C 1.52963,-0.92049 3.97704,-0.13808 4.53381,0 Z"
                   style="fill:#000000;fill-opacity:1;fill-rule:nonzero;stroke:#000000;stroke-width:0.79701;stroke-linecap:butt;stroke-linejoin:miter;stroke-miterlimit:10;stroke-dasharray:none;stroke-opacity:1"
                   id="path518" /></g></g></g><g
             id="g520"><path
               d="m 14.17339,-16.80884 v 2.63545 C 14.17339,-6.34554 20.51894,0 28.34679,0 h 0.71054"
               style="fill:none;stroke:#000000;stroke-width:0.79701;stroke-linecap:butt;stroke-linejoin:miter;stroke-miterlimit:10;stroke-dasharray:none;stroke-opacity:1"
               id="path522" /><g
               id="g524"
               transform="translate(29.05733)"><g
                 id="g526"><path
                   d="M 4.53381,0 C 3.97704,0.13808 1.52963,0.92049 0,1.77196 V -1.77196 C 1.52963,-0.92049 3.97704,-0.13808 4.53381,0 Z"
                   style="fill:#000000;fill-opacity:1;fill-rule:nonzero;stroke:#000000;stroke-width:0.79701;stroke-linecap:butt;stroke-linejoin:miter;stroke-miterlimit:10;stroke-dasharray:none;stroke-opacity:1"
                   id="path528" /></g></g></g><g
             id="g530"><path
               d="m -14.17339,7.28593 v 21.7714"
               style="fill:none;stroke:#000000;stroke-width:0.79701;stroke-linecap:butt;stroke-linejoin:miter;stroke-miterlimit:10;stroke-dasharray:none;stroke-opacity:1"
               id="path532" /><g
               id="g534"
               transform="rotate(90,-21.61536,7.44197)"><g
                 id="g536"><path
                   d="M 4.53381,0 C 3.97704,0.13808 1.52963,0.92049 0,1.77196 V -1.77196 C 1.52963,-0.92049 3.97704,-0.13808 4.53381,0 Z"
                   style="fill:#000000;fill-opacity:1;fill-rule:nonzero;stroke:#000000;stroke-width:0.79701;stroke-linecap:butt;stroke-linejoin:miter;stroke-miterlimit:10;stroke-dasharray:none;stroke-opacity:1"
                   id="path538" /></g></g></g><g
             id="g540"><path
               d="m 28.3468,42.5202 h 7.0867 c 3.91393,0 7.0867,-3.17277 7.0867,-7.0867 v -2.96377"
               style="fill:none;stroke:#000000;stroke-width:0.79701;stroke-linecap:butt;stroke-linejoin:miter;stroke-miterlimit:10;stroke-dasharray:none;stroke-opacity:1"
               id="path542" /><g
               id="g544"
               transform="rotate(-90,37.494965,-5.025235)"><g
                 id="g546"><path
                   d="M 4.53381,0 C 3.97704,0.13808 1.52963,0.92049 0,1.77196 V -1.77196 C 1.52963,-0.92049 3.97704,-0.13808 4.53381,0 Z"
                   style="fill:#000000;fill-opacity:1;fill-rule:nonzero;stroke:#000000;stroke-width:0.79701;stroke-linecap:butt;stroke-linejoin:miter;stroke-miterlimit:10;stroke-dasharray:none;stroke-opacity:1"
                   id="path548" /></g></g></g><g
             id="g550"><path
               d="M 42.5202,16.22739 V 13.46286"
               style="fill:none;stroke:#000000;stroke-width:0.79701;stroke-linecap:butt;stroke-linejoin:miter;stroke-miterlimit:10;stroke-dasharray:none;stroke-opacity:1"
               id="path552" /><g
               id="g554"
               transform="rotate(-90,27.99153,-14.52867)"><g
                 id="g556"><path
                   d="M 4.53381,0 C 3.97704,0.13808 1.52963,0.92049 0,1.77196 V -1.77196 C 1.52963,-0.92049 3.97704,-0.13808 4.53381,0 Z"
                   style="fill:#000000;fill-opacity:1;fill-rule:nonzero;stroke:#000000;stroke-width:0.79701;stroke-linecap:butt;stroke-linejoin:miter;stroke-miterlimit:10;stroke-dasharray:none;stroke-opacity:1"
                   id="path558" /></g></g></g><g
             id="g560"><path
               d="M 42.5202,-7.28593 V -28.3468 c 0,-7.82785 6.34555,-14.1734 14.1734,-14.1734 h 42.14663"
               style="fill:none;stroke:#000000;stroke-width:0.79701;stroke-linecap:butt;stroke-linejoin:miter;stroke-miterlimit:10;stroke-dasharray:none;stroke-opacity:1"
               id="path562" /></g><g
             id="g564" /><g
             id="g566"><path
               d="m 56.69362,-42.5202 v 0 c 7.82783,0 14.17338,6.34555 14.17338,14.1734 v 68.03215"
               style="fill:none;stroke:#000000;stroke-width:0.79701;stroke-linecap:butt;stroke-linejoin:miter;stroke-miterlimit:10;stroke-dasharray:none;stroke-opacity:1"
               id="path568" /></g><g
             id="g570"><path
               d="M 70.867,45.35463 V 70.49342"
               style="fill:none;stroke:#000000;stroke-width:0.79701;stroke-linecap:butt;stroke-linejoin:miter;stroke-miterlimit:10;stroke-dasharray:none;stroke-opacity:1"
               id="path572" /></g></g></g></g></g></svg>
