<?xml version="1.0" encoding="UTF-8" standalone="no"?>
<svg
   xmlns:dc="http://purl.org/dc/elements/1.1/"
   xmlns:cc="http://creativecommons.org/ns#"
   xmlns:rdf="http://www.w3.org/1999/02/22-rdf-syntax-ns#"
   xmlns:svg="http://www.w3.org/2000/svg"
   xmlns="http://www.w3.org/2000/svg"
   version="1.1"
   id="svg2"
   xml:space="preserve"
width="483.24707"
height="230.75219"
   viewBox="0 0 966.49414 461.50439"><metadata
     id="metadata8"><rdf:RDF><cc:Work
         rdf:about=""><dc:format>image/svg+xml</dc:format><dc:type
           rdf:resource="http://purl.org/dc/dcmitype/StillImage" /></cc:Work></rdf:RDF></metadata><defs
     id="defs6" /><g
     id="g10"
     transform="matrix(1.3333333,0,0,1.3333333,0,6.8709432e-6)"><g
       id="g12"><g
         id="g14"><path
           d="m 94.656,342.102 6.871,-19.879 c -7.886,3.625 -20.461,16.289 -28.445,14.715 13.23,-11.012 26.074,-20.297 33.945,-38.868 10.09,-20.703 5.594,-29.707 -12.922,-28.437 -17.457,1.199 -35.281,14.746 -34.574,45.012 0.285,12.23 -4.062,18.222 -4.375,5.574 -0.097,-4.11 -2.82,-3.848 -5.777,-1.449 -9.633,8.222 10.051,-34.192 8.285,-40.508 -7.562,2.445 -25.625,44.746 -28.891,39.945 1.536,-10.59 0.196,-13.914 -6.543,-1.504 -2.277,4.195 -9.113,13.719 -10.687,11.723 5.496,-14.227 15.898,-26.379 21.43,-40.696 0,-0.703 -5.496,1.184 -12.211,4.192 -13.996,6.266 -21.828,5.613 -15.446,-1.285 3.825,-4.133 45.125,-21.59 71.633,-30.282 22.239,-7.289 26.563,-10.027 26.508,-16.773 -0.055,-6.586 -5.242,-12.801 -13.297,-18.508 -11.219,-7.957 -29.191,-1.457 -45.984,19.551 -5.824,6.711 -8.914,16.742 -18.582,17 1.172,-3.039 -0.024,-9.91 6.222,-15.043 3.039,-2.5 6.743,-8.086 8.735,-11.852 3.586,-6.781 5.996,-9.835 5.996,-9.835 0,0 -38.606,7.183 -38.645,7.273 9.586,-5.324 9.957,-4.641 4.934,-14.012 -4.231,-9.355 -4.539,-12.984 -3.469,-40.633 1.168,-30.203 4.543,-41.519 4.543,-41.519 0.797,6.562 3.531,13.332 8.418,0.109 0,0 -0.945,0.918 -2.574,26.063 -1.945,29.922 5.016,49.355 15.734,50.73 5.574,0.715 29.633,0.578 31.446,-1.824 -3.18,-8.281 -18.934,-8.133 -25.676,-12.945 -0.043,-0.949 4.324,-1.25 8.961,-2.61 7.543,-2.211 9.09,-0.687 19.234,4.344 21.313,12.332 12.586,5.43 12.293,-8.91 0,0 5.41,6.348 9.442,10.195 11.933,11.391 17.687,6.207 16.703,-12.668 -0.684,-13.195 -3.688,-29.941 -19.098,-48.754 -8.93,-10.898 -7.086,-16.207 -15.375,-17.902 -20.859,4.289 -32.766,-16.695 -40.215,-20.418 -4.93,0 -19.808,-7.152 -22.484,-9.102 C 1.422,81.391 28.758,93.52 32.961,92.711 31.938,79.324 0.094,46.488 0.762,47.75 9.715,44.875 1.902,25.969 2.008,20.488 6.535,26.141 8.188,24.785 10.145,18.82 9.426,40.703 11,52.773 25.297,66.484 c 12.84,14.821 20.258,39.723 39.41,45.036 4.77,1.539 9.145,1.75 11.297,0.605 4.23,-2.25 7.164,-6.898 -21.566,-42.402 C 37.27,48.512 31.977,39.887 34.68,35.945 c 3.968,-0.754 4.734,0.981 11.422,8.512 l 8.339,9.398 1.106,-7.242 c 1.141,-6.515 0.242,-23.066 -6.121,-32.57 -3.641,-5.434 2.922,-4.375 6.351,2.031 l 3.11,5.801 1.511,-6.73 c 1.918,-8.54 3.93,-14.918 3.93,-14.918 -0.437,8.281 1.184,11.23 6.356,6.976 -0.442,23.66 -19.094,44.449 -1.325,70.973 l 4.645,-7.699 c 3.687,-6.118 6.105,-12.43 5.695,-30.832 -0.394,-17.493 3.403,-32.231 5.184,-32.528 1.215,8.508 -1.692,19.664 3.621,27.945 0.328,-7.585 6.254,-19.874 6.969,-18.886 0.554,0 0.398,5.707 -7.289,33.226 -7.106,25.45 -4.758,45.274 1.418,58.66 4.296,9.317 8.187,8.352 9.019,3.532 0.512,-2.965 0.555,-15.332 0.098,-27.489 C 97.895,62.258 98.02,58.574 98.02,58.574 c -0.305,6.563 11.406,17.289 22.554,-10.672 3.555,-8.918 10.332,-18.179 10.332,-18.179 -4.625,12.988 -4.797,20.761 -4.508,23.187 0.887,0.602 8.762,-2.707 12.774,-5.715 -0.063,-0.101 -25.469,31.774 -26.942,43.289 7.133,6.086 21.481,-21.476 21.481,-21.476 0.066,-0.348 1.84,7.664 1.672,8.519 0.488,0.207 9.555,-7.187 9.828,-6.507 0.617,-0.637 -8.309,13.511 -21.422,23.332 -21.312,20.769 -14.637,46.679 -6.93,58.785 5.231,10.574 26.336,24.668 34.645,26.707 13.25,3.254 14.742,-15.77 2.855,-36.399 -8.601,-14.925 -13.906,-39.48 -11.234,-46.527 2.504,-6.602 4.176,0.941 9.77,6.684 2.425,2.492 2.917,-4.93 2.027,-19.497 -1.199,-19.593 -2.629,-24.531 0.582,-24.531 1.992,0 3.808,3.781 3.808,4.965 0,1.188 2.086,-0.105 3.942,0 2.695,0.152 0.012,16.899 -0.969,19.289 -1.383,3.379 7.789,-11.398 10.508,-18.687 2.113,-5.664 3.066,-19.563 3.066,-19.563 -0.199,0.36 1.95,13.852 5.965,11.965 2.082,-0.977 1.367,0.906 2.578,0.906 1.215,0 2.864,-2.578 2.864,-7.449 0,-6.715 0.746,-8.574 3.093,-7.691 2.172,0.812 3.754,-2.914 7.188,-11.895 2.965,-7.758 4.191,-17.16 6.187,-17.16 3.676,0 1.821,13.008 -4.179,40.742 -7.493,34.59 -4.649,34.266 9.742,14.313 5.129,-7.118 10.515,-15.192 12.293,-15.192 4.34,0 -6.528,20.051 -6.528,20.051 0,0 5.946,0.402 8.606,1.906 1.644,0.93 -4.418,6.414 -19.465,17.383 -16.66,12.141 -16.144,15.871 -25.613,51.164 -11.375,30.754 22.121,52.637 46.344,56.289 32.316,9.531 58.906,17.965 82.875,25.067 28.234,8.359 53.257,15.578 83.847,16.441 28.012,0.793 57.731,-1.762 84.594,-10.348 24.723,-7.902 47.027,-20.386 63.355,-40.601 27.243,-33.731 45.633,-67.125 45.633,-67.125 7.817,-21.965 20.457,-41.785 18.121,-65.949 -1.382,-8.641 -10.742,-15.364 -16.121,-9.965 -1.699,1.703 -5.457,6.918 -8.336,6.918 -6.871,0 -9.828,-5.325 -3.066,-9.762 l 7.742,-2.859 c -3.5,-11.786 -19.941,-8.86 -10.695,-18.481 8.219,-6.191 14.594,-4.547 12.555,2.734 -0.879,3.145 3.843,7.168 12.32,10.993 11.5,5.191 12.25,2.398 12.711,1.433 0.707,-1.472 0.898,-4.636 2.812,-6.187 2.516,-2.043 7.067,-2.313 6.051,-7.59 -1.375,-7.184 -3.676,-13.117 3.508,-12.441 6.125,0.574 1.074,8.304 3.832,11.199 4.64,4.867 16.844,-5.93 19.953,4.968 -0.648,3.227 -1.84,5.395 -9.383,4.051 -7.554,-1.344 -13.644,-0.683 -18.211,8.867 -3.219,6.727 -8.461,29.836 -4.746,28.372 1.149,-0.454 14.563,-7.797 25.27,-13.727 22.304,-12.348 38.207,-24.305 37.199,-33.723 -0.481,-4.453 -0.094,-9.957 4.32,-11.925 9.977,-4.446 10.067,-0.696 8.246,7.394 -1.379,6.121 1.871,5.969 3.059,6.203 0.18,1.071 -13.484,11.813 -13.484,11.813 0,0 21.015,-9.293 21.015,-4.614 0,5.618 -4.285,7.907 -19.336,12.172 -7.168,2.032 -18.508,8.559 -24.07,12.403 -13.051,11.074 -39.289,14.855 -44.035,34.097 -3.637,7.735 -6.004,11.543 -3.961,12.813 4.707,2.926 11.183,3.984 22.676,-7.766 6.183,-6.324 13.988,-12.613 17.339,-13.98 3.352,-1.367 7.204,-4.938 8.618,-7.907 3.402,-7.136 8.507,-12.89 8.32,-3.601 -0.113,5.508 2.914,6.09 9.098,-1.34 6.468,-7.781 11.464,-3.598 9.355,6.395 -1.152,5.46 -23.309,6.871 -23.91,9.843 0,1.895 15.223,1.922 13.894,2.68 -9.55,6.289 -23.293,3.352 -30.16,13.121 l 17.336,2.375 c 6.617,1.02 14.125,3.188 16.68,4.828 2.555,1.637 11.992,5.117 20.973,7.731 14.937,4.351 25.089,8.679 25.39,12.687 0.328,4.324 -28.695,-5.179 -46.023,-12.324 -3.489,-1.441 9.871,8.855 14.676,15.996 3.515,5.231 7.14,13.727 7.292,23.234 0.278,17.321 4.047,18.754 14.653,22.016 10.254,3.152 9.75,9.836 -0.692,10.695 -16.011,-2.168 -20.543,-16.023 -23.386,-29.425 -5.637,5.171 -16.449,19.07 -19.328,10.578 0,-2.235 1.14,-4.981 4.152,-6.914 9.605,-6.153 15.043,-13.52 12.406,-20.926 -4.351,-12.227 -43.582,-40.516 -55.617,-30.754 -2.48,2.012 3.434,6.301 6.906,13.332 5.598,11.348 5.809,21.066 4.305,23.441 -0.711,1.125 -7.133,1.02 -7.039,-1.824 0.519,-15.437 -4.199,-23.48 -6.137,-24.672 -1.332,-0.664 -1.988,8.571 1.582,30.09 0.371,2.238 -1.164,2.922 -3.555,2.922 -6.246,0 -8.535,-3.297 -6.492,-9.227 2.118,-6.148 -0.043,-13.625 -2.199,-19.902 -2.93,-8.519 -10.879,-12.891 -18.351,-4.273 -2.567,2.867 -4.965,5.812 -7.227,8.804 -18.949,25.078 -28.231,53.516 -45.82,69.793 -21.184,19.606 -43.344,34.043 -68.211,42.481 -26.469,8.98 -55.7,11.914 -89.141,9.394 C 364,249.129 334.852,240.18 301.539,233.414 l -77.57,-19.441 c -18.817,3.144 -39.836,21.984 -41.043,28.445 -1.946,10.383 15.851,19.195 40.769,24.91 11.7,4.637 12.157,6.137 -0.613,4.66 l -12.062,-0.55 c 2.925,6.441 12.289,9.363 13.402,13.367 -8.074,6.738 -57.594,-36.602 -58.902,-25.364 -5.208,24.352 70.718,60.024 49.218,58.766 -4.578,-0.816 -10.008,-2.102 -11.55,-2.332 -4.418,-0.652 -9.493,3.855 -4.43,10.105 2.808,3.469 7.785,9.25 5.176,10.614 -12.95,-5.805 -15.922,-26.504 -29.489,-31.469 -5.711,5.07 -0.16,18.18 -6.035,23.086 -0.297,-20.352 -0.496,-40.703 -12.515,-61.399 h -27.926 c 2.105,12.809 5.984,61.735 3.394,56.715 -3.781,-7.336 -7.398,-15.238 -10.476,-25.035 -6.461,7.969 -12.942,35.606 -13.422,47.449 -2.426,-9.339 -5.106,-11.906 -12.809,-3.839 z m 80.66,-221.09 c 8.844,-17.207 11.696,-51.574 9.641,-58.184 -2.117,-6.816 -34.668,54.012 -27.051,63.586 4.125,5.176 9.219,14.406 11.774,11.77 0.957,-0.989 3.031,-8.872 5.636,-17.172 z"
           style="fill:#a88fd1;fill-opacity:1;fill-rule:nonzero;stroke:#000000;stroke-width:1.5;stroke-linecap:butt;stroke-linejoin:miter;stroke-miterlimit:4;stroke-dasharray:none;stroke-opacity:1"
           id="path16" /></g><g
         id="g18"><path
           d="m 139.77,211.855 c -6.192,-3.312 -10.688,0.415 -10.688,6.563 0,7.352 22.391,31.797 28.313,25.875 11.726,-11.727 -4.727,-28.887 -17.625,-32.438 z"
           style="fill:#2d7132;fill-opacity:1;fill-rule:nonzero;stroke:#000000;stroke-width:1.5;stroke-linecap:butt;stroke-linejoin:miter;stroke-miterlimit:4;stroke-dasharray:none;stroke-opacity:1"
           id="path20" /></g><g
         id="g22"><path
           d="m 227.707,198.918 c 22.301,-4.941 43.496,5.215 64.254,12.187 5.309,2.172 9.973,6.215 12.336,11.5 -0.422,9.36 -10.25,16.954 -19.418,15.079 -15.613,0.3 -31.875,-1.516 -45.68,-9.348 -6.523,-2.887 -13.621,-7.039 -15.715,-14.352 -0.906,-5.363 1.348,-10.66 4.223,-15.066 z"
           style="fill:#f4cc4b;fill-opacity:1;fill-rule:nonzero;stroke:#000000;stroke-width:1.5;stroke-linecap:butt;stroke-linejoin:miter;stroke-miterlimit:4;stroke-dasharray:none;stroke-opacity:1"
           id="path24" /></g><g
         id="g26"><path
           d="m 316.207,223.668 c 11.313,-2.648 20.477,0.121 31.125,2.25 9.004,1.801 21.633,2.379 29.625,6.375 33.75,29.121 -19.277,26.75 -36.375,23.625 -19.727,-4.555 -46.402,-19.43 -24.375,-32.25 z"
           style="fill:#f4cc4b;fill-opacity:1;fill-rule:nonzero;stroke:#000000;stroke-width:1.5;stroke-linecap:butt;stroke-linejoin:miter;stroke-miterlimit:4;stroke-dasharray:none;stroke-opacity:1"
           id="path28" /></g><g
         id="g30"><path
           d="m 398.707,239.418 c 10.988,-3.25 71.301,-18.039 75,-1.875 6.281,27.434 -41.812,29.773 -59.25,26.25 -8.227,-1.664 -28.812,-12.082 -15.75,-24.375 z"
           style="fill:#f4cc4b;fill-opacity:1;fill-rule:nonzero;stroke:#000000;stroke-width:1.5;stroke-linecap:butt;stroke-linejoin:miter;stroke-miterlimit:4;stroke-dasharray:none;stroke-opacity:1"
           id="path32" /></g><g
         id="g34"><path
           d="m 481.582,227.793 c 4.445,-8.434 54.895,-48.047 65.25,-24 5.152,11.957 -67.059,58.387 -66.75,34.125 0.055,-4.246 -1.492,-5.633 1.5,-10.125 z"
           style="fill:#f4cc4b;fill-opacity:1;fill-rule:nonzero;stroke:#000000;stroke-width:1.5;stroke-linecap:butt;stroke-linejoin:miter;stroke-miterlimit:4;stroke-dasharray:none;stroke-opacity:1"
           id="path36" /></g><g
         id="g38"><path
           d="m 555.785,197.512 c 9.422,-1.477 13.371,-10.793 21.047,-18.469 11.043,-11.043 22.125,-28.051 22.125,-43.125 0,-3.492 -17.707,-13.418 -20.824,-10.301 -8.176,8.176 -60.805,68.047 -22.348,71.895 z"
           style="fill:#f4cc4b;fill-opacity:1;fill-rule:nonzero;stroke:#000000;stroke-width:1.5;stroke-linecap:butt;stroke-linejoin:miter;stroke-miterlimit:4;stroke-dasharray:none;stroke-opacity:1"
           id="path40" /></g><g
         id="g42"><path
           d="m 251.52,215.605 c 2.296,-0.39 4,-0.703 5.343,-2.718 4.196,-6.293 -7.539,-6.676 -10.687,-5.625 -6.422,2.14 0.004,9.25 5.344,8.343 z"
           style="fill:#d79b9b;fill-opacity:1;fill-rule:nonzero;stroke:#000000;stroke-width:1.5;stroke-linecap:butt;stroke-linejoin:miter;stroke-miterlimit:4;stroke-dasharray:none;stroke-opacity:1"
           id="path44" /></g><g
         id="g46"><path
           d="m 342.363,246.637 c 2.469,-0.231 4.696,-0.664 6.375,-2.344 5.465,-5.465 -6.152,-7.293 -9.468,-6.188 -5.375,1.793 -2.125,9.016 3.093,8.532 z"
           style="fill:#d79b9b;fill-opacity:1;fill-rule:nonzero;stroke:#000000;stroke-width:1.5;stroke-linecap:butt;stroke-linejoin:miter;stroke-miterlimit:4;stroke-dasharray:none;stroke-opacity:1"
           id="path48" /></g><g
         id="g50"><path
           d="m 433.488,253.48 c 18.34,1.122 9.508,-15.761 -2.625,-8.531 -3.968,2.363 -1.066,8.531 2.625,8.531 z"
           style="fill:#d79b9b;fill-opacity:1;fill-rule:nonzero;stroke:#000000;stroke-width:1.5;stroke-linecap:butt;stroke-linejoin:miter;stroke-miterlimit:4;stroke-dasharray:none;stroke-opacity:1"
           id="path52" /></g><g
         id="g54"><path
           d="m 513.27,212.98 c -2.278,0.059 -4.286,1.606 -6.094,2.813 -6.313,4.207 2.601,10.117 7.594,8.121 8.257,-3.305 7.445,-11.898 -1.5,-10.934 z"
           style="fill:#d79b9b;fill-opacity:1;fill-rule:nonzero;stroke:#000000;stroke-width:1.5;stroke-linecap:butt;stroke-linejoin:miter;stroke-miterlimit:4;stroke-dasharray:none;stroke-opacity:1"
           id="path56" /></g><g
         id="g58"><path
           d="m 565.984,166.262 c 1.801,0.668 4.426,-1.817 5.368,-3.696 0.609,-1.222 1.601,-2.613 1.953,-4.015 3.933,-15.758 -21.024,2.629 -7.321,7.711 z"
           style="fill:#d79b9b;fill-opacity:1;fill-rule:nonzero;stroke:#000000;stroke-width:1.5;stroke-linecap:butt;stroke-linejoin:miter;stroke-miterlimit:4;stroke-dasharray:none;stroke-opacity:1"
           id="path60" /></g></g></g></svg>
