<?xml version="1.0" encoding="UTF-8" standalone="no"?>
<svg
   xmlns:dc="http://purl.org/dc/elements/1.1/"
   xmlns:cc="http://creativecommons.org/ns#"
   xmlns:rdf="http://www.w3.org/1999/02/22-rdf-syntax-ns#"
   xmlns:svg="http://www.w3.org/2000/svg"
   xmlns="http://www.w3.org/2000/svg"
   xmlns:sodipodi="http://sodipodi.sourceforge.net/DTD/sodipodi-0.dtd"
   xmlns:inkscape="http://www.inkscape.org/namespaces/inkscape"
   version="1.1"
   id="svg2"
   xml:space="preserve"
   width="465.43602"
   height="276.58399"
   viewBox="0 0 310.29068 184.38933"
   sodipodi:docname="TLU.svg"
   inkscape:version="1.0.1 (3bc2e813f5, 2020-09-07)"><sodipodi:namedview
     pagecolor="#ffffff"
     bordercolor="#666666"
     borderopacity="1"
     objecttolerance="10"
     gridtolerance="10"
     guidetolerance="10"
     inkscape:pageopacity="0"
     inkscape:pageshadow="2"
     inkscape:window-width="1920"
     inkscape:window-height="1052"
     id="namedview236"
     showgrid="false"
     inkscape:zoom="2.4686529"
     inkscape:cx="232.71802"
     inkscape:cy="138.29199"
     inkscape:window-x="-1"
     inkscape:window-y="1"
     inkscape:window-maximized="1"
     inkscape:current-layer="g10" /><metadata
     id="metadata8"><rdf:RDF><cc:Work
         rdf:about=""><dc:format>image/svg+xml</dc:format><dc:type
           rdf:resource="http://purl.org/dc/dcmitype/StillImage" /></cc:Work></rdf:RDF></metadata><defs
     id="defs6" /><g
     id="g10"
     transform="matrix(1.3333333,0,0,-1.3333333,0,184.38933)"><g
       id="g18"
       transform="translate(38.401,154.186)"><g
         id="g20"><path
           d="m 12.45346,-28.3468 c 0,6.87793 -5.57553,12.45346 -12.45346,12.45346 -6.87793,0 -12.45346,-5.57553 -12.45346,-12.45346 0,-6.87795 5.57553,-12.45346 12.45346,-12.45346 6.87793,0 12.45346,5.57551 12.45346,12.45346 z"
           style="fill:#6ba4c4;fill-opacity:1;fill-rule:nonzero;stroke:none"
           id="path22" /></g><g
         id="g24"
         transform="translate(-4.733,-29.884)"><g
           id="g26"><g
             id="g28"
             transform="translate(-33.668,-124.302)"><text
               transform="matrix(1,0,0,-1,33.668,124.302)"
               style="font-style:italic;font-variant:normal;font-size:8.96638px;font-family:'TeX Gyre Termes';-inkscape-font-specification:TeXGyreTermesX-Italic;writing-mode:lr-tb;fill:#000000;fill-opacity:1;fill-rule:nonzero;stroke:none"
               id="text32"><tspan
                 x="0"
                 y="0"
                 id="tspan30">w</tspan></text><text
               transform="matrix(1,0,0,-1,39.648,123.306)"
               style="font-variant:normal;font-weight:normal;font-size:5.97758px;font-family:'TeX Gyre Termes';-inkscape-font-specification:TeXGyreTermesX-Regular;writing-mode:lr-tb;fill:#000000;fill-opacity:1;fill-rule:nonzero;stroke:none"
               id="text36"><tspan
                 x="0"
                 y="0"
                 id="tspan34">1</tspan></text><g
               id="g38"
               transform="translate(33.668,124.302)" /></g></g><g
           id="g40"
           transform="translate(4.733,29.884)" /></g></g><g
       id="g42"
       transform="translate(38.401,154.186)"><g
         id="g44"
         transform="translate(-35.413,-29.884)"><g
           id="g46"><g
             id="g48"
             transform="translate(-2.988,-124.302)"><text
               transform="matrix(1,0,0,-1,2.988,124.302)"
               style="font-style:italic;font-variant:normal;font-size:8.96638px;font-family:'TeX Gyre Termes';-inkscape-font-specification:TeXGyreTermesX-Italic;writing-mode:lr-tb;fill:#000000;fill-opacity:1;fill-rule:nonzero;stroke:none"
               id="text52"><tspan
                 x="0"
                 y="0"
                 id="tspan50">x</tspan></text><text
               transform="matrix(1,0,0,-1,6.97,123.306)"
               style="font-variant:normal;font-weight:normal;font-size:5.97758px;font-family:'TeX Gyre Termes';-inkscape-font-specification:TeXGyreTermesX-Regular;writing-mode:lr-tb;fill:#000000;fill-opacity:1;fill-rule:nonzero;stroke:none"
               id="text56"><tspan
                 x="0"
                 y="0"
                 id="tspan54">1</tspan></text><g
               id="g58"
               transform="translate(2.988,124.302)" /></g></g><g
           id="g60"
           transform="translate(35.413,29.884)" /></g></g><g
       id="g62"
       transform="translate(38.401,154.186)"><path
         d="M -13.11098,-28.3468 H -23.76115"
         style="fill:none;stroke:#808080;stroke-width:0.3985;stroke-linecap:butt;stroke-linejoin:miter;stroke-miterlimit:10;stroke-dasharray:none;stroke-opacity:1"
         id="path64" /><g
         id="g66"><g
           id="g68"
           transform="translate(-13.11098,-28.3468)"><g
             id="g70"><path
               d="M -1.19551,1.59401 C -1.09587,0.99626 0,0.09961 0.29886,0 0,-0.09961 -1.09587,-0.99626 -1.19551,-1.59401"
               style="fill:none;stroke:#808080;stroke-width:0.31879;stroke-linecap:round;stroke-linejoin:round;stroke-miterlimit:10;stroke-dasharray:none;stroke-opacity:1"
               id="path72" /></g></g></g></g><g
       id="g74"
       transform="translate(38.401,154.186)"><g
         id="g76"><path
           d="m 12.45346,-56.69362 c 0,6.87795 -5.57553,12.45346 -12.45346,12.45346 -6.87793,0 -12.45346,-5.57551 -12.45346,-12.45346 0,-6.87793 5.57553,-12.45346 12.45346,-12.45346 6.87793,0 12.45346,5.57553 12.45346,12.45346 z"
           style="fill:#6ba4c4;fill-opacity:1;fill-rule:nonzero;stroke:none"
           id="path78" /></g><g
         id="g80"
         transform="translate(-4.733,-58.231)"><g
           id="g82"><g
             id="g84"
             transform="translate(-33.668,-95.955)"><text
               transform="matrix(1,0,0,-1,33.668,95.955)"
               style="font-style:italic;font-variant:normal;font-size:8.96638px;font-family:'TeX Gyre Termes';-inkscape-font-specification:TeXGyreTermesX-Italic;writing-mode:lr-tb;fill:#000000;fill-opacity:1;fill-rule:nonzero;stroke:none"
               id="text88"><tspan
                 x="0"
                 y="0"
                 id="tspan86">w</tspan></text><text
               transform="matrix(1,0,0,-1,39.648,94.959)"
               style="font-variant:normal;font-weight:normal;font-size:5.97758px;font-family:'TeX Gyre Termes';-inkscape-font-specification:TeXGyreTermesX-Regular;writing-mode:lr-tb;fill:#000000;fill-opacity:1;fill-rule:nonzero;stroke:none"
               id="text92"><tspan
                 x="0"
                 y="0"
                 id="tspan90">2</tspan></text><g
               id="g94"
               transform="translate(33.668,95.955)" /></g></g><g
           id="g96"
           transform="translate(4.733,58.231)" /></g></g><g
       id="g98"
       transform="translate(38.401,154.186)"><g
         id="g100"
         transform="translate(-35.413,-58.231)"><g
           id="g102"><g
             id="g104"
             transform="translate(-2.988,-95.955)"><text
               transform="matrix(1,0,0,-1,2.988,95.955)"
               style="font-style:italic;font-variant:normal;font-size:8.96638px;font-family:'TeX Gyre Termes';-inkscape-font-specification:TeXGyreTermesX-Italic;writing-mode:lr-tb;fill:#000000;fill-opacity:1;fill-rule:nonzero;stroke:none"
               id="text108"><tspan
                 x="0"
                 y="0"
                 id="tspan106">x</tspan></text><text
               transform="matrix(1,0,0,-1,6.97,94.959)"
               style="font-variant:normal;font-weight:normal;font-size:5.97758px;font-family:'TeX Gyre Termes';-inkscape-font-specification:TeXGyreTermesX-Regular;writing-mode:lr-tb;fill:#000000;fill-opacity:1;fill-rule:nonzero;stroke:none"
               id="text112"><tspan
                 x="0"
                 y="0"
                 id="tspan110">2</tspan></text><g
               id="g114"
               transform="translate(2.988,95.955)" /></g></g><g
           id="g116"
           transform="translate(35.413,58.231)" /></g></g><g
       id="g118"
       transform="translate(38.401,154.186)"><path
         d="M -13.11098,-56.69362 H -23.76115"
         style="fill:none;stroke:#808080;stroke-width:0.3985;stroke-linecap:butt;stroke-linejoin:miter;stroke-miterlimit:10;stroke-dasharray:none;stroke-opacity:1"
         id="path120" /><g
         id="g122"><g
           id="g124"
           transform="translate(-13.11098,-56.69362)"><g
             id="g126"><path
               d="M -1.19551,1.59401 C -1.09587,0.99626 0,0.09961 0.29886,0 0,-0.09961 -1.09587,-0.99626 -1.19551,-1.59401"
               style="fill:none;stroke:#808080;stroke-width:0.31879;stroke-linecap:round;stroke-linejoin:round;stroke-miterlimit:10;stroke-dasharray:none;stroke-opacity:1"
               id="path128" /></g></g></g></g><g
       id="g130"
       transform="translate(38.401,154.186)"><g
         id="g132"><path
           d="m 12.45346,-85.04042 c 0,6.87793 -5.57553,12.45346 -12.45346,12.45346 -6.87793,0 -12.45346,-5.57553 -12.45346,-12.45346 0,-6.87795 5.57553,-12.45346 12.45346,-12.45346 6.87793,0 12.45346,5.57551 12.45346,12.45346 z"
           style="fill:#6ba4c4;fill-opacity:1;fill-rule:nonzero;stroke:none"
           id="path134" /></g><g
         id="g136"
         transform="translate(-4.733,-86.54)"><g
           id="g138"><g
             id="g140"
             transform="translate(-33.668,-67.646)"><text
               transform="matrix(1,0,0,-1,33.668,67.646)"
               style="font-style:italic;font-variant:normal;font-size:8.96638px;font-family:'TeX Gyre Termes';-inkscape-font-specification:TeXGyreTermesX-Italic;writing-mode:lr-tb;fill:#000000;fill-opacity:1;fill-rule:nonzero;stroke:none"
               id="text144"><tspan
                 x="0"
                 y="0"
                 id="tspan142">w</tspan></text><text
               transform="matrix(1,0,0,-1,39.648,66.65)"
               style="font-variant:normal;font-weight:normal;font-size:5.97758px;font-family:'TeX Gyre Termes';-inkscape-font-specification:TeXGyreTermesX-Regular;writing-mode:lr-tb;fill:#000000;fill-opacity:1;fill-rule:nonzero;stroke:none"
               id="text148"><tspan
                 x="0"
                 y="0"
                 id="tspan146">3</tspan></text><g
               id="g150"
               transform="translate(33.668,67.646)" /></g></g><g
           id="g152"
           transform="translate(4.733,86.54)" /></g></g><g
       id="g154"
       transform="translate(38.401,154.186)"><g
         id="g156"
         transform="translate(-35.413,-86.54)"><g
           id="g158"><g
             id="g160"
             transform="translate(-2.988,-67.646)"><text
               transform="matrix(1,0,0,-1,2.988,67.646)"
               style="font-style:italic;font-variant:normal;font-size:8.96638px;font-family:'TeX Gyre Termes';-inkscape-font-specification:TeXGyreTermesX-Italic;writing-mode:lr-tb;fill:#000000;fill-opacity:1;fill-rule:nonzero;stroke:none"
               id="text164"><tspan
                 x="0"
                 y="0"
                 id="tspan162">x</tspan></text><text
               transform="matrix(1,0,0,-1,6.97,66.65)"
               style="font-variant:normal;font-weight:normal;font-size:5.97758px;font-family:'TeX Gyre Termes';-inkscape-font-specification:TeXGyreTermesX-Regular;writing-mode:lr-tb;fill:#000000;fill-opacity:1;fill-rule:nonzero;stroke:none"
               id="text168"><tspan
                 x="0"
                 y="0"
                 id="tspan166">3</tspan></text><g
               id="g170"
               transform="translate(2.988,67.646)" /></g></g><g
           id="g172"
           transform="translate(35.413,86.54)" /></g></g><g
       id="g174"
       transform="translate(38.401,154.186)"><path
         d="M -13.11098,-85.04042 H -23.76115"
         style="fill:none;stroke:#808080;stroke-width:0.3985;stroke-linecap:butt;stroke-linejoin:miter;stroke-miterlimit:10;stroke-dasharray:none;stroke-opacity:1"
         id="path176" /><g
         id="g178"><g
           id="g180"
           transform="translate(-13.11098,-85.04042)"><g
             id="g182"><path
               d="M -1.19551,1.59401 C -1.09587,0.99626 0,0.09961 0.29886,0 0,-0.09961 -1.09587,-0.99626 -1.19551,-1.59401"
               style="fill:none;stroke:#808080;stroke-width:0.31879;stroke-linecap:round;stroke-linejoin:round;stroke-miterlimit:10;stroke-dasharray:none;stroke-opacity:1"
               id="path184" /></g></g></g></g><g
       id="g186"
       transform="translate(38.401,154.186)"><g
         id="g188"><path
           d="m 12.45346,-113.38724 c 0,6.87794 -5.57553,12.45346 -12.45346,12.45346 -6.87793,0 -12.45346,-5.57552 -12.45346,-12.45346 0,-6.87793 5.57553,-12.45346 12.45346,-12.45346 6.87793,0 12.45346,5.57553 12.45346,12.45346 z"
           style="fill:#6ba4c4;fill-opacity:1;fill-rule:nonzero;stroke:none"
           id="path190" /></g><g
         id="g192"
         transform="translate(-4.733,-114.924)"><g
           id="g194"><g
             id="g196"
             transform="translate(-33.668,-39.262)"><text
               transform="matrix(1,0,0,-1,33.668,39.262)"
               style="font-style:italic;font-variant:normal;font-size:8.96638px;font-family:'TeX Gyre Termes';-inkscape-font-specification:TeXGyreTermesX-Italic;writing-mode:lr-tb;fill:#000000;fill-opacity:1;fill-rule:nonzero;stroke:none"
               id="text200"><tspan
                 x="0"
                 y="0"
                 id="tspan198">w</tspan></text><text
               transform="matrix(1,0,0,-1,39.648,38.266)"
               style="font-variant:normal;font-weight:normal;font-size:5.97758px;font-family:'TeX Gyre Termes';-inkscape-font-specification:TeXGyreTermesX-Regular;writing-mode:lr-tb;fill:#000000;fill-opacity:1;fill-rule:nonzero;stroke:none"
               id="text204"><tspan
                 x="0"
                 y="0"
                 id="tspan202">4</tspan></text><g
               id="g206"
               transform="translate(33.668,39.262)" /></g></g><g
           id="g208"
           transform="translate(4.733,114.924)" /></g></g><g
       id="g210"
       transform="translate(38.401,154.186)"><g
         id="g212"
         transform="translate(-35.413,-114.924)"><g
           id="g214"><g
             id="g216"
             transform="translate(-2.988,-39.262)"><text
               transform="matrix(1,0,0,-1,2.988,39.262)"
               style="font-style:italic;font-variant:normal;font-size:8.96638px;font-family:'TeX Gyre Termes';-inkscape-font-specification:TeXGyreTermesX-Italic;writing-mode:lr-tb;fill:#000000;fill-opacity:1;fill-rule:nonzero;stroke:none"
               id="text220"><tspan
                 x="0"
                 y="0"
                 id="tspan218">x</tspan></text><text
               transform="matrix(1,0,0,-1,6.97,38.266)"
               style="font-variant:normal;font-weight:normal;font-size:5.97758px;font-family:'TeX Gyre Termes';-inkscape-font-specification:TeXGyreTermesX-Regular;writing-mode:lr-tb;fill:#000000;fill-opacity:1;fill-rule:nonzero;stroke:none"
               id="text224"><tspan
                 x="0"
                 y="0"
                 id="tspan222">4</tspan></text><g
               id="g226"
               transform="translate(2.988,39.262)" /></g></g><g
           id="g228"
           transform="translate(35.413,114.924)" /></g></g><g
       id="g230"
       transform="translate(38.401,154.186)"><path
         d="M -13.11098,-113.38724 H -23.76115"
         style="fill:none;stroke:#808080;stroke-width:0.3985;stroke-linecap:butt;stroke-linejoin:miter;stroke-miterlimit:10;stroke-dasharray:none;stroke-opacity:1"
         id="path232" /><g
         id="g234"><g
           id="g236"
           transform="translate(-13.11098,-113.38724)"><g
             id="g238"><path
               d="M -1.19551,1.59401 C -1.09587,0.99626 0,0.09961 0.29886,0 0,-0.09961 -1.09587,-0.99626 -1.19551,-1.59401"
               style="fill:none;stroke:#808080;stroke-width:0.31879;stroke-linecap:round;stroke-linejoin:round;stroke-miterlimit:10;stroke-dasharray:none;stroke-opacity:1"
               id="path240" /></g></g></g></g><g
       id="g242"
       transform="translate(38.401,154.186)"><g
         id="g244"><path
           d="m 12.45346,-141.73404 c 0,6.87793 -5.57553,12.45346 -12.45346,12.45346 -6.87793,0 -12.45346,-5.57553 -12.45346,-12.45346 0,-6.87794 5.57553,-12.45346 12.45346,-12.45346 6.87793,0 12.45346,5.57552 12.45346,12.45346 z"
           style="fill:#6ba4c4;fill-opacity:1;fill-rule:nonzero;stroke:none"
           id="path246" /></g><g
         id="g248"
         transform="translate(-4.733,-143.233)"><g
           id="g250"><g
             id="g252"
             transform="translate(-33.668,-10.953)"><text
               transform="matrix(1,0,0,-1,33.668,10.953)"
               style="font-style:italic;font-variant:normal;font-size:8.96638px;font-family:'TeX Gyre Termes';-inkscape-font-specification:TeXGyreTermesX-Italic;writing-mode:lr-tb;fill:#000000;fill-opacity:1;fill-rule:nonzero;stroke:none"
               id="text256"><tspan
                 x="0"
                 y="0"
                 id="tspan254">w</tspan></text><text
               transform="matrix(1,0,0,-1,39.648,9.957)"
               style="font-variant:normal;font-weight:normal;font-size:5.97758px;font-family:'TeX Gyre Termes';-inkscape-font-specification:TeXGyreTermesX-Regular;writing-mode:lr-tb;fill:#000000;fill-opacity:1;fill-rule:nonzero;stroke:none"
               id="text260"><tspan
                 x="0"
                 y="0"
                 id="tspan258">5</tspan></text><g
               id="g262"
               transform="translate(33.668,10.953)" /></g></g><g
           id="g264"
           transform="translate(4.733,143.233)" /></g></g><g
       id="g266"
       transform="translate(38.401,154.186)"><g
         id="g268"
         transform="translate(-35.413,-143.233)"><g
           id="g270"><g
             id="g272"
             transform="translate(-2.988,-10.953)"><text
               transform="matrix(1,0,0,-1,2.988,10.953)"
               style="font-style:italic;font-variant:normal;font-size:8.96638px;font-family:'TeX Gyre Termes';-inkscape-font-specification:TeXGyreTermesX-Italic;writing-mode:lr-tb;fill:#000000;fill-opacity:1;fill-rule:nonzero;stroke:none"
               id="text276"><tspan
                 x="0"
                 y="0"
                 id="tspan274">x</tspan></text><text
               transform="matrix(1,0,0,-1,6.97,9.957)"
               style="font-variant:normal;font-weight:normal;font-size:5.97758px;font-family:'TeX Gyre Termes';-inkscape-font-specification:TeXGyreTermesX-Regular;writing-mode:lr-tb;fill:#000000;fill-opacity:1;fill-rule:nonzero;stroke:none"
               id="text280"><tspan
                 x="0"
                 y="0"
                 id="tspan278">5</tspan></text><g
               id="g282"
               transform="translate(2.988,10.953)" /></g></g><g
           id="g284"
           transform="translate(35.413,143.233)" /></g></g><g
       id="g286"
       transform="translate(38.401,154.186)"><path
         d="M -13.11098,-141.73404 H -23.76115"
         style="fill:none;stroke:#808080;stroke-width:0.3985;stroke-linecap:butt;stroke-linejoin:miter;stroke-miterlimit:10;stroke-dasharray:none;stroke-opacity:1"
         id="path288" /><g
         id="g290"><g
           id="g292"
           transform="translate(-13.11098,-141.73404)"><g
             id="g294"><path
               d="M -1.19551,1.59401 C -1.09587,0.99626 0,0.09961 0.29886,0 0,-0.09961 -1.09587,-0.99626 -1.19551,-1.59401"
               style="fill:none;stroke:#808080;stroke-width:0.31879;stroke-linecap:round;stroke-linejoin:round;stroke-miterlimit:10;stroke-dasharray:none;stroke-opacity:1"
               id="path296" /></g></g></g></g><g
       id="g302"
       transform="translate(38.40101,154.186)"><path
         d="m 92.15561,-85.04042 c 0,6.87793 -5.57553,12.45346 -12.45346,12.45346 -6.87795,0 -12.45346,-5.57553 -12.45346,-12.45346 0,-6.87795 5.57551,-12.45346 12.45346,-12.45346 6.87793,0 12.45346,5.57551 12.45346,12.45346 z"
         style="fill:#d97e65;fill-opacity:1;fill-rule:nonzero;stroke:none"
         id="path304" /></g><g
       id="g320"
       transform="translate(38.40101,154.186)"><g
         id="g322"
         transform="translate(77.46,-57.01)"><g
           id="g324"><g
             id="g326"
             transform="translate(-115.861,-97.176)"><text
               transform="matrix(1,0,0,-1,115.861,97.176)"
               style="font-style:italic;font-variant:normal;font-size:8.96638px;font-family:'TeX Gyre Termes';-inkscape-font-specification:TeXGyreTermesX-Italic;writing-mode:lr-tb;fill:#000000;fill-opacity:1;fill-rule:nonzero;stroke:none"
               id="text330"><tspan
                 x="0"
                 y="0"
                 id="tspan328">b</tspan></text><g
               id="g332"
               transform="translate(115.861,97.176)" /></g></g><g
           id="g334"
           transform="translate(-77.46,57.01)" /></g></g><g
       id="g336"
       transform="translate(38.40101,154.186)"><path
         d="m 79.70215,-71.92943 v 10.65018"
         style="fill:none;stroke:#808080;stroke-width:0.3985;stroke-linecap:butt;stroke-linejoin:miter;stroke-miterlimit:10;stroke-dasharray:none;stroke-opacity:1"
         id="path338" /><g
         id="g340"><g
           id="g342"
           transform="rotate(-90,3.88636,-75.81579)"><g
             id="g344"><path
               d="M -1.19551,1.59401 C -1.09587,0.99626 0,0.09961 0.29886,0 0,-0.09961 -1.09587,-0.99626 -1.19551,-1.59401"
               style="fill:none;stroke:#808080;stroke-width:0.31879;stroke-linecap:round;stroke-linejoin:round;stroke-miterlimit:10;stroke-dasharray:none;stroke-opacity:1"
               id="path346" /></g></g></g></g><g
       id="g348"
       transform="translate(38.40101,154.186)"><path
         d="M 10.30966,-35.68018 68.20709,-76.86401"
         style="fill:none;stroke:#808080;stroke-width:0.3985;stroke-linecap:butt;stroke-linejoin:miter;stroke-miterlimit:10;stroke-dasharray:none;stroke-opacity:1"
         id="path350" /><g
         id="g352"><g
           id="g354"
           transform="matrix(0.81482,-0.57959,0.57959,0.81482,68.20709,-76.86401)"><g
             id="g356"><path
               d="M -1.19551,1.59401 C -1.09587,0.99626 0,0.09961 0.29886,0 0,-0.09961 -1.09587,-0.99626 -1.19551,-1.59401"
               style="fill:none;stroke:#808080;stroke-width:0.31879;stroke-linecap:round;stroke-linejoin:round;stroke-miterlimit:10;stroke-dasharray:none;stroke-opacity:1"
               id="path358" /></g></g></g></g><g
       id="g360"
       transform="translate(38.40101,154.186)"><path
         d="M 11.9206,-60.9333 66.41096,-80.31352"
         style="fill:none;stroke:#808080;stroke-width:0.3985;stroke-linecap:butt;stroke-linejoin:miter;stroke-miterlimit:10;stroke-dasharray:none;stroke-opacity:1"
         id="path362" /><g
         id="g364"><g
           id="g366"
           transform="matrix(0.94214,-0.33508,0.33508,0.94214,66.41095,-80.31352)"><g
             id="g368"><path
               d="M -1.19551,1.59401 C -1.09587,0.99626 0,0.09961 0.29886,0 0,-0.09961 -1.09587,-0.99626 -1.19551,-1.59401"
               style="fill:none;stroke:#808080;stroke-width:0.31879;stroke-linecap:round;stroke-linejoin:round;stroke-miterlimit:10;stroke-dasharray:none;stroke-opacity:1"
               id="path370" /></g></g></g></g><g
       id="g372"
       transform="translate(38.40101,154.186)"><path
         d="M 12.65271,-85.04042 H 65.59488"
         style="fill:none;stroke:#808080;stroke-width:0.3985;stroke-linecap:butt;stroke-linejoin:miter;stroke-miterlimit:10;stroke-dasharray:none;stroke-opacity:1"
         id="path374" /><g
         id="g376"><g
           id="g378"
           transform="translate(65.59488,-85.04042)"><g
             id="g380"><path
               d="M -1.19551,1.59401 C -1.09587,0.99626 0,0.09961 0.29886,0 0,-0.09961 -1.09587,-0.99626 -1.19551,-1.59401"
               style="fill:none;stroke:#808080;stroke-width:0.31879;stroke-linecap:round;stroke-linejoin:round;stroke-miterlimit:10;stroke-dasharray:none;stroke-opacity:1"
               id="path382" /></g></g></g></g><g
       id="g384"
       transform="translate(38.40101,154.186)"><path
         d="m 11.9206,-109.14754 54.49036,19.38022"
         style="fill:none;stroke:#808080;stroke-width:0.3985;stroke-linecap:butt;stroke-linejoin:miter;stroke-miterlimit:10;stroke-dasharray:none;stroke-opacity:1"
         id="path386" /><g
         id="g388"><g
           id="g390"
           transform="matrix(0.94214,0.33508,-0.33508,0.94214,66.41095,-89.76732)"><g
             id="g392"><path
               d="M -1.19551,1.59401 C -1.09587,0.99626 0,0.09961 0.29886,0 0,-0.09961 -1.09587,-0.99626 -1.19551,-1.59401"
               style="fill:none;stroke:#808080;stroke-width:0.31879;stroke-linecap:round;stroke-linejoin:round;stroke-miterlimit:10;stroke-dasharray:none;stroke-opacity:1"
               id="path394" /></g></g></g></g><g
       id="g396"
       transform="translate(38.40101,154.186)"><path
         d="m 10.30966,-134.40067 57.89743,41.18383"
         style="fill:none;stroke:#808080;stroke-width:0.3985;stroke-linecap:butt;stroke-linejoin:miter;stroke-miterlimit:10;stroke-dasharray:none;stroke-opacity:1"
         id="path398" /><g
         id="g400"><g
           id="g402"
           transform="matrix(0.81482,0.57959,-0.57959,0.81482,68.20709,-93.21684)"><g
             id="g404"><path
               d="M -1.19551,1.59401 C -1.09587,0.99626 0,0.09961 0.29886,0 0,-0.09961 -1.09587,-0.99626 -1.19551,-1.59401"
               style="fill:none;stroke:#808080;stroke-width:0.31879;stroke-linecap:round;stroke-linejoin:round;stroke-miterlimit:10;stroke-dasharray:none;stroke-opacity:1"
               id="path406" /></g></g></g></g><g
       id="g408"
       transform="translate(38.40102,154.186)"><g
         id="g410"><g
           id="g412"><path
             d="m 146.95084,-97.49388 h 24.90692 v 24.90692 h -24.90692 z"
             style="fill:#bb81c2;fill-opacity:1;fill-rule:nonzero;stroke:none"
             id="path414" /></g><g
           id="g416"
           transform="translate(157.161,-86.149)"><g
             id="g418"><g
               id="g420"
               transform="translate(-195.562,-68.037)"><text
                 transform="matrix(1,0,0,-1,195.562,68.037)"
                 style="font-style:italic;font-variant:normal;font-size:8.96638px;font-family:'TeX Gyre Termes';-inkscape-font-specification:TeXGyreTermesX-Italic;writing-mode:lr-tb;fill:#000000;fill-opacity:1;fill-rule:nonzero;stroke:none"
                 id="text424"><tspan
                   x="0"
                   y="0"
                   id="tspan422">g</tspan></text><g
                 id="g426"
                 transform="translate(195.562,68.037)" /></g></g><g
             id="g428"
             transform="translate(-157.161,86.149)" /></g></g><g
         id="g430"><g
           id="g432"
           transform="translate(187.347,-86.149)"><g
             id="g434"><g
               id="g436"
               transform="translate(-225.748,-68.037)"><text
                 transform="matrix(1,0,0,-1,225.748,68.037)"
                 style="font-style:italic;font-variant:normal;font-size:8.96638px;font-family:'TeX Gyre Termes';-inkscape-font-specification:TeXGyreTermesX-Italic;writing-mode:lr-tb;fill:#000000;fill-opacity:1;fill-rule:nonzero;stroke:none"
                 id="text440"><tspan
                   x="0"
                   y="0"
                   id="tspan438">y</tspan></text><g
                 id="g442"
                 transform="translate(225.748,68.037)" /></g></g><g
             id="g444"
             transform="translate(-187.347,86.149)" /></g></g><g
         id="g446"><path
           d="m 172.057,-85.04042 h 10.65017"
           style="fill:none;stroke:#808080;stroke-width:0.3985;stroke-linecap:butt;stroke-linejoin:miter;stroke-miterlimit:10;stroke-dasharray:none;stroke-opacity:1"
           id="path448" /><g
           id="g450"><g
             id="g452"
             transform="translate(182.70717,-85.04042)"><g
               id="g454"><path
                 d="M -1.19551,1.59401 C -1.09587,0.99626 0,0.09961 0.29886,0 0,-0.09961 -1.09587,-0.99626 -1.19551,-1.59401"
                 style="fill:none;stroke:#808080;stroke-width:0.31879;stroke-linecap:round;stroke-linejoin:round;stroke-miterlimit:10;stroke-dasharray:none;stroke-opacity:1"
                 id="path456" /></g></g></g></g><g
         id="g458"><path
           d="m 92.35486,-85.04042 h 52.94217"
           style="fill:none;stroke:#808080;stroke-width:0.3985;stroke-linecap:butt;stroke-linejoin:miter;stroke-miterlimit:10;stroke-dasharray:none;stroke-opacity:1"
           id="path460" /><g
           id="g462"><g
             id="g464"
             transform="translate(145.29703,-85.04042)"><g
               id="g466"><path
                 d="M -1.19551,1.59401 C -1.09587,0.99626 0,0.09961 0.29886,0 0,-0.09961 -1.09587,-0.99626 -1.19551,-1.59401"
                 style="fill:none;stroke:#808080;stroke-width:0.31879;stroke-linecap:round;stroke-linejoin:round;stroke-miterlimit:10;stroke-dasharray:none;stroke-opacity:1"
                 id="path468" /></g></g></g></g><g
         id="g470"
         transform="translate(9.9999997e-6)" /></g></g></svg>
